<?xml version="1.0" encoding="utf-8"?>
<svg xmlns="http://www.w3.org/2000/svg" version="1.1" viewBox="0 0 1537.613882997437 849.9295082406275" width="1537.613882997437" height="849.9295082406275" filter="invert(93%) hue-rotate(180deg)">
  
  
  <defs>
    <style class="style-fonts">
      @font-face {
        font-family: "Virgil";
        src: url(/Virgil.woff2);
      }
      @font-face {
        font-family: "Cascadia";
        src: url(/Cascadia.woff2);
      }
    </style>
    
  </defs>
  <rect x="0" y="0" width="1537.613882997437" height="849.9295082406275" fill="#ffffff"/>
  <g transform="translate(90.73173340705102 61.0250042401625) rotate(0 52.39996337890625 12.5)">
    <text x="0" y="0" font-family="Virgil, Segoe UI Emoji" font-size="20px" fill="#1e1e1e" text-anchor="start" style="white-space: pre;" direction="ltr" dominant-baseline="text-before-edge">count -> 0</text>
  </g>
  <g transform="translate(429.62062229593994 62.136115351273645) rotate(0 48.22996520996094 12.5)">
    <text x="0" y="0" font-family="Virgil, Segoe UI Emoji" font-size="20px" fill="#1e1e1e" text-anchor="start" style="white-space: pre;" direction="ltr" dominant-baseline="text-before-edge">count -> 1</text>
  </g>
  <g transform="translate(762.9539556292733 59.91389312905147) rotate(0 52.63996124267578 12.5)">
    <text x="0" y="0" font-family="Virgil, Segoe UI Emoji" font-size="20px" fill="#1e1e1e" text-anchor="start" style="white-space: pre;" direction="ltr" dominant-baseline="text-before-edge">count -> 2</text>
  </g>
  <g transform="translate(1092.953955629273 52.1361153512737) rotate(0 52.32996368408203 12.5)">
    <text x="0" y="0" font-family="Virgil, Segoe UI Emoji" font-size="20px" fill="#1e1e1e" text-anchor="start" style="white-space: pre;" direction="ltr" dominant-baseline="text-before-edge">count -> 3</text>
  </g>
  <g transform="translate(1422.953955629273 157.6916709068293) rotate(0 52.32996368408203 12.5)">
    <text x="0" y="0" font-family="Virgil, Segoe UI Emoji" font-size="20px" fill="#1e1e1e" text-anchor="start" style="white-space: pre;" direction="ltr" dominant-baseline="text-before-edge">count -> 3</text>
  </g>
  <g stroke-linecap="round" transform="translate(83.73173340705102 101.0250042401625) rotate(0 152.50000000000003 75)">
    <path d="M7.86 8.16 C7.86 8.16, 7.86 8.16, 7.86 8.16 M7.86 8.16 C7.86 8.16, 7.86 8.16, 7.86 8.16 M3.66 19.09 C9.12 10.99, 15.44 7.87, 18.1 2.48 M3.66 19.09 C9.49 12.44, 15.18 6.54, 18.1 2.48 M2.75 26.24 C6.63 21.27, 15.08 12.26, 24.4 1.33 M2.75 26.24 C7.53 20.24, 12.75 13.99, 24.4 1.33 M2.48 32.64 C10.59 22.49, 18.9 11.16, 30.7 0.18 M2.48 32.64 C11.84 21.85, 22.36 10.5, 30.7 0.18 M2.88 38.28 C16.86 23.01, 27.35 10.22, 34.37 2.05 M2.88 38.28 C11.29 29.71, 18.87 21.8, 34.37 2.05 M2.62 44.68 C15.47 32.47, 25.15 17.18, 39.36 2.41 M2.62 44.68 C13.85 32.21, 25.15 19.72, 39.36 2.41 M2.36 51.07 C13.74 39.32, 21.58 29.11, 45 2.02 M2.36 51.07 C13.89 36.85, 27.36 21.74, 45 2.02 M2.75 56.72 C22.09 34.93, 40.88 12.22, 49.99 2.38 M2.75 56.72 C15.35 41.83, 28.41 26.06, 49.99 2.38 M2.49 63.11 C20.89 43.75, 38.15 20.42, 55.63 1.98 M2.49 63.11 C15.81 48.78, 27.43 34.44, 55.63 1.98 M2.88 68.76 C15.28 51.34, 29.2 35.87, 60.62 2.34 M2.88 68.76 C24.1 44.74, 44.86 21.03, 60.62 2.34 M2.62 75.16 C16.64 60.73, 30.85 46.48, 66.26 1.95 M2.62 75.16 C17.47 56.98, 32.56 40.42, 66.26 1.95 M2.36 81.55 C26.5 53.1, 51.4 27.43, 71.25 2.31 M2.36 81.55 C28.45 51.1, 56.62 19.15, 71.25 2.31 M2.76 87.2 C28.09 59.39, 50.32 30.26, 76.89 1.91 M2.76 87.2 C21.91 64.81, 41.91 42.17, 76.89 1.91 M2.49 93.59 C35.16 57.9, 66.05 21.98, 81.88 2.27 M2.49 93.59 C24.96 66.3, 48.43 40.14, 81.88 2.27 M2.89 99.24 C26.37 70.74, 55.75 40.26, 87.52 1.88 M2.89 99.24 C35.12 62.45, 66.39 24.93, 87.52 1.88 M2.63 105.64 C26.09 79.93, 49.83 53.01, 92.51 2.24 M2.63 105.64 C32.1 71.63, 63.18 36.81, 92.51 2.24 M2.37 112.03 C35.73 73.7, 72.25 33.87, 98.15 1.85 M2.37 112.03 C30.74 79.28, 57.96 46.73, 98.15 1.85 M2.76 117.68 C31.44 84.71, 58.61 52.5, 103.14 2.21 M2.76 117.68 C26.57 88.82, 52.12 60.76, 103.14 2.21 M1.19 125.58 C22.91 98.83, 43.34 74.61, 108.78 1.81 M1.19 125.58 C22.87 98.01, 46.78 73, 108.78 1.81 M2.24 130.47 C42.37 83.44, 84.87 40.32, 113.77 2.17 M2.24 130.47 C40.99 84.1, 80.78 37.86, 113.77 2.17 M3.94 134.61 C49.63 81.88, 96.77 25.6, 119.41 1.78 M3.94 134.61 C44.97 86.15, 88.49 36.39, 119.41 1.78 M5.65 138.74 C32.61 108.37, 61.83 80.18, 124.4 2.14 M5.65 138.74 C31.71 108.92, 56.9 78.47, 124.4 2.14 M8.67 141.36 C55.61 89.83, 102.53 34.2, 130.04 1.74 M8.67 141.36 C46.22 99.63, 82.75 59.11, 130.04 1.74 M11.69 143.99 C43.01 110.3, 69.35 75.28, 135.03 2.1 M11.69 143.99 C57.28 92.87, 102.5 40.57, 135.03 2.1 M14.05 147.37 C42.71 113.81, 71.23 83.91, 140.67 1.71 M14.05 147.37 C59.03 98.51, 100.82 49.34, 140.67 1.71 M18.38 148.48 C59.52 97.49, 103.02 46.96, 145.66 2.07 M18.38 148.48 C42.26 120.12, 67.88 90.55, 145.66 2.07 M22.71 149.6 C60.95 109.25, 94.17 67.74, 150.65 2.43 M22.71 149.6 C70.01 95.1, 118.76 39.64, 150.65 2.43 M26.39 151.47 C63.04 105.8, 103.77 60.84, 156.29 2.03 M26.39 151.47 C64.57 110.09, 101.25 68.23, 156.29 2.03 M32.69 150.32 C78.09 98.94, 119.63 49.61, 161.28 2.39 M32.69 150.32 C69.35 108.74, 105.13 68.24, 161.28 2.39 M37.67 150.68 C74.93 108.21, 113.21 64.68, 166.92 2 M37.67 150.68 C68.92 115.6, 98.43 81.66, 166.92 2 M43.32 150.28 C80.45 105.15, 121.59 59.96, 171.91 2.36 M43.32 150.28 C75.1 114.62, 106.31 77.41, 171.91 2.36 M48.3 150.64 C86.67 105.48, 126.52 60.86, 177.55 1.96 M48.3 150.64 C79.55 114.97, 110.65 79.44, 177.55 1.96 M53.95 150.25 C87.57 109.74, 121.67 70.27, 182.54 2.32 M53.95 150.25 C91.97 107.28, 128.26 65.35, 182.54 2.32 M58.94 150.61 C98.89 101.43, 140.53 55.32, 188.18 1.93 M58.94 150.61 C104.29 96.77, 150.59 41.46, 188.18 1.93 M64.58 150.21 C97.45 115.63, 127.31 79.51, 193.17 2.29 M64.58 150.21 C104.17 102.22, 145.63 53.75, 193.17 2.29 M69.57 150.57 C118.21 91.96, 165.13 37.8, 198.81 1.9 M69.57 150.57 C97.35 118.11, 125.61 86.24, 198.81 1.9 M75.21 150.18 C111.25 108.45, 145.49 68.68, 203.8 2.26 M75.21 150.18 C110.95 107.63, 148.4 64.39, 203.8 2.26 M80.2 150.54 C111.42 113.35, 146.49 74.94, 209.44 1.86 M80.2 150.54 C117.36 109.08, 153.66 66.3, 209.44 1.86 M85.84 150.14 C122 107.41, 158.67 66.56, 214.43 2.22 M85.84 150.14 C115.32 116.97, 145.52 82.97, 214.43 2.22 M90.83 150.5 C119.44 116.79, 151.49 80.79, 220.07 1.83 M90.83 150.5 C141.92 90.1, 194 30.53, 220.07 1.83 M96.47 150.11 C126.96 115.83, 153.9 85.44, 225.06 2.19 M96.47 150.11 C124.49 117.25, 154.4 82.13, 225.06 2.19 M101.46 150.47 C137.43 107.01, 177.32 59.46, 230.7 1.79 M101.46 150.47 C138.74 109.23, 176.91 67.2, 230.7 1.79 M106.44 150.83 C150.28 101.4, 192.32 52.71, 235.69 2.15 M106.44 150.83 C137.08 115.21, 169.52 78.3, 235.69 2.15 M112.09 150.43 C158.05 102.03, 199.72 50.04, 241.33 1.76 M112.09 150.43 C141.66 119.25, 168.21 86.93, 241.33 1.76 M117.07 150.8 C159.41 105.75, 200.99 54.61, 246.32 2.12 M117.07 150.8 C155.46 108.22, 192.92 64.45, 246.32 2.12 M122.72 150.4 C151.04 120.19, 177.48 86.73, 251.96 1.72 M122.72 150.4 C162.66 104.37, 202.77 57.48, 251.96 1.72 M127.7 150.76 C174.65 102.23, 217.17 49.73, 256.95 2.08 M127.7 150.76 C161.35 112.67, 193.84 74.39, 256.95 2.08 M133.35 150.37 C181.14 91.07, 232.76 33.73, 262.59 1.69 M133.35 150.37 C171.48 107.63, 211.41 61.73, 262.59 1.69 M138.33 150.73 C188.17 93.18, 236.48 34.87, 267.58 2.05 M138.33 150.73 C173.06 108.98, 208.11 69.75, 267.58 2.05 M143.98 150.33 C186.05 103.6, 229.67 49.8, 273.88 0.9 M143.98 150.33 C186.85 100.83, 228.62 51.62, 273.88 0.9 M148.96 150.69 C196.14 93.41, 246.24 37.31, 278.86 1.26 M148.96 150.69 C196.94 97.13, 245.29 41.74, 278.86 1.26 M154.61 150.3 C201.22 93.99, 251.17 39.27, 283.19 2.37 M154.61 150.3 C197.09 102.46, 239.41 53.55, 283.19 2.37 M159.59 150.66 C182.72 118.91, 208.78 90.44, 286.87 4.24 M159.59 150.66 C209.13 92.01, 259.39 33.66, 286.87 4.24 M165.24 150.26 C190.13 121.58, 218.32 91.75, 291.2 5.36 M165.24 150.26 C201.71 105.84, 237.91 63.4, 291.2 5.36 M170.22 150.62 C210.05 107.09, 247.37 63.96, 295.53 6.47 M170.22 150.62 C210.58 103.42, 249.8 58.4, 295.53 6.47 M175.87 150.23 C220.1 99.81, 260.08 54.45, 297.89 9.85 M175.87 150.23 C222.46 96.53, 269.17 41.64, 297.89 9.85 M180.85 150.59 C217.1 110.3, 253.6 66.52, 300.91 12.48 M180.85 150.59 C217.09 107.74, 255.47 63.18, 300.91 12.48 M186.5 150.19 C223.21 108.23, 258.02 68.57, 302.62 16.61 M186.5 150.19 C213.84 119.67, 241.65 89.5, 302.62 16.61 M191.48 150.55 C234.8 100.62, 276.38 51.22, 304.98 19.99 M191.48 150.55 C221.31 113.76, 252.73 80.09, 304.98 19.99 M197.13 150.16 C226.83 116.91, 251.82 86.43, 306.03 24.88 M197.13 150.16 C218.78 123.24, 242.23 97, 306.03 24.88 M202.11 150.52 C226.21 122.03, 253.64 93.02, 305.11 32.03 M202.11 150.52 C231.43 114.74, 261.91 79.72, 305.11 32.03 M207.76 150.12 C237.62 115.5, 270.12 79.63, 304.85 38.43 M207.76 150.12 C245 109.99, 278.8 67.73, 304.85 38.43 M212.74 150.48 C248.46 110.06, 286.55 65.61, 305.25 44.07 M212.74 150.48 C233.67 126.4, 252.96 103.81, 305.25 44.07 M217.73 150.84 C242.16 120.47, 264.26 92.69, 304.99 50.47 M217.73 150.84 C247.14 119.06, 273.9 87.69, 304.99 50.47 M223.37 150.45 C248.09 119.8, 274.62 92.58, 305.38 56.11 M223.37 150.45 C244.33 125.75, 264.71 102.57, 305.38 56.11 M228.36 150.81 C249.47 125.15, 272.95 100.94, 305.12 62.51 M228.36 150.81 C256.22 119.04, 283.57 87.56, 305.12 62.51 M234 150.42 C259.36 118.71, 286.86 91.08, 304.86 68.91 M234 150.42 C258.66 120.22, 284.98 91.17, 304.86 68.91 M238.99 150.78 C260.99 122.89, 283.9 97.29, 305.25 74.55 M238.99 150.78 C259.78 127.25, 279.35 103.65, 305.25 74.55 M244.63 150.38 C266.16 124, 289.34 96.37, 304.99 80.95 M244.63 150.38 C262.96 130.08, 282.7 108.81, 304.99 80.95 M249.62 150.74 C263.18 136.39, 274.99 121, 305.39 86.59 M249.62 150.74 C265.26 133.74, 280.36 114.22, 305.39 86.59 M255.26 150.35 C268.87 136.86, 280.89 121.36, 305.12 92.99 M255.26 150.35 C272.71 129.81, 291.62 109.99, 305.12 92.99 M260.25 150.71 C278.54 132.09, 294.49 110.73, 304.86 99.39 M260.25 150.71 C275.44 133.13, 291.17 114.85, 304.86 99.39 M265.89 150.31 C276.75 134.82, 288.34 121.23, 305.26 105.03 M265.89 150.31 C274.21 140.46, 282.31 130.93, 305.26 105.03 M270.88 150.67 C282.95 136.3, 296.58 123.5, 305 111.43 M270.88 150.67 C279.38 141.42, 287.31 131.99, 305 111.43 M275.21 151.79 C287.37 138.72, 298.62 126.71, 305.39 117.07 M275.21 151.79 C283.46 143.87, 289.54 135.11, 305.39 117.07 M281.51 150.64 C287.31 145.37, 293.72 134.88, 307.75 120.45 M281.51 150.64 C288.84 142.59, 296.12 133.19, 307.75 120.45 M288.47 148.73 C295.02 140.74, 299.59 134.9, 306.84 127.6 M288.47 148.73 C293.59 141.53, 300.66 134.52, 306.84 127.6" stroke="#e9ecef" stroke-width="0.5" fill="none"/>
    <path d="M32 0 C89.98 0.12, 148.51 2.55, 273 0 M32 0 C83.47 1.79, 132.74 1.85, 273 0 M273 0 C294.43 1.9, 306.23 9.36, 305 32 M273 0 C293.06 0.07, 305.25 9.44, 305 32 M305 32 C307 58, 305.82 84.34, 305 118 M305 32 C306.13 57.82, 305.7 84.37, 305 118 M305 118 C303.92 137.7, 295.07 148.91, 273 150 M305 118 C302.87 141.27, 294.39 150.82, 273 150 M273 150 C217.15 147.29, 160.92 147.98, 32 150 M273 150 C210.08 148.66, 146.78 149.76, 32 150 M32 150 C12.39 148.63, -0.41 140.26, 0 118 M32 150 C9.65 148.15, -1.28 140.7, 0 118 M0 118 C1.54 99.32, -1.02 76.38, 0 32 M0 118 C-0.01 99.01, -0.63 81.75, 0 32 M0 32 C0.31 9.06, 11.83 -1.05, 32 0 M0 32 C-2.22 9.04, 12.08 0.77, 32 0" stroke="#1e1e1e" stroke-width="1" fill="none"/>
  </g>
  <g transform="translate(106.96610840705102 117.0250042401625) rotate(0 134.765625 60)">
    <text x="0" y="0" font-family="Cascadia, Segoe UI Emoji" font-size="20px" fill="#1e1e1e" text-anchor="start" style="white-space: pre;" direction="ltr" dominant-baseline="text-before-edge">fn () </text>
    <text x="0" y="24" font-family="Cascadia, Segoe UI Emoji" font-size="20px" fill="#1e1e1e" text-anchor="start" style="white-space: pre;" direction="ltr" dominant-baseline="text-before-edge">{</text>
    <text x="0" y="48" font-family="Cascadia, Segoe UI Emoji" font-size="20px" fill="#1e1e1e" text-anchor="start" style="white-space: pre;" direction="ltr" dominant-baseline="text-before-edge">if (count == 3) return;</text>
    <text x="0" y="72" font-family="Cascadia, Segoe UI Emoji" font-size="20px" fill="#1e1e1e" text-anchor="start" style="white-space: pre;" direction="ltr" dominant-baseline="text-before-edge">count++; fn () </text>
    <text x="0" y="96" font-family="Cascadia, Segoe UI Emoji" font-size="20px" fill="#1e1e1e" text-anchor="start" style="white-space: pre;" direction="ltr" dominant-baseline="text-before-edge">}</text>
  </g>
  <g stroke-linecap="round" transform="translate(415.9539556292732 104.35833757349582) rotate(0 152.50000000000006 75)">
    <path d="M7.86 8.16 C7.86 8.16, 7.86 8.16, 7.86 8.16 M7.86 8.16 C7.86 8.16, 7.86 8.16, 7.86 8.16 M2.35 20.59 C8.28 14.9, 9.02 9.51, 18.1 2.48 M2.35 20.59 C7.93 13.41, 13.8 7.77, 18.1 2.48 M1.43 27.75 C9.48 16.8, 20.76 7.1, 24.4 1.33 M1.43 27.75 C6.94 21.6, 11.49 16.15, 24.4 1.33 M1.17 34.14 C7.4 24.62, 17.05 16.82, 30.7 0.18 M1.17 34.14 C10.29 23.58, 18.72 13.45, 30.7 0.18 M0.91 40.54 C11.65 29.13, 18.93 18.57, 36.34 -0.21 M0.91 40.54 C10.38 30.43, 18.06 20.72, 36.34 -0.21 M1.31 46.19 C13.84 33.39, 25.23 18.06, 41.33 0.15 M1.31 46.19 C11.84 34.61, 22.74 22.75, 41.33 0.15 M1.04 52.58 C13.87 38.54, 26.13 26.81, 46.97 -0.25 M1.04 52.58 C13.96 36.87, 25.92 22.76, 46.97 -0.25 M1.44 58.23 C20.79 35.12, 43.07 12.42, 51.96 0.11 M1.44 58.23 C20.17 35.75, 39.09 15.34, 51.96 0.11 M1.18 64.62 C17.3 46.44, 32.46 25.75, 57.6 -0.28 M1.18 64.62 C18.87 44.83, 35.22 24.32, 57.6 -0.28 M0.92 71.02 C18.7 52.64, 33.9 33.67, 62.59 0.08 M0.92 71.02 C20.63 47.78, 38.5 25.76, 62.59 0.08 M1.31 76.67 C24.79 52.24, 47.61 26.22, 67.57 0.44 M1.31 76.67 C26.41 47.49, 53.61 16.83, 67.57 0.44 M1.05 83.06 C15.53 67.5, 31.28 49.67, 73.22 0.04 M1.05 83.06 C22.38 56.63, 45.81 29.87, 73.22 0.04 M1.44 88.71 C27.37 60.83, 54.62 30.94, 78.2 0.41 M1.44 88.71 C28.21 57.22, 54.27 28.07, 78.2 0.41 M1.18 95.1 C23.63 69.48, 48.66 41.55, 83.85 0.01 M1.18 95.1 C19.38 75.39, 37.26 53.31, 83.85 0.01 M0.92 101.5 C24.83 73.09, 47.95 44.71, 88.83 0.37 M0.92 101.5 C24.59 75.59, 46.33 51.53, 88.83 0.37 M1.32 107.14 C26.56 77.44, 53.86 47.97, 94.48 -0.02 M1.32 107.14 C33.39 67.77, 68.05 29.13, 94.48 -0.02 M1.05 113.54 C34.52 74.04, 69.54 35.03, 99.46 0.34 M1.05 113.54 C35.79 74.7, 70.43 34.77, 99.46 0.34 M1.45 119.19 C23.94 94.37, 42.77 69.71, 105.11 -0.06 M1.45 119.19 C31.72 82.62, 64.58 45.9, 105.11 -0.06 M1.19 125.58 C32.54 88.59, 68.74 46.46, 110.09 0.3 M1.19 125.58 C38.67 82.43, 74.76 41.31, 110.09 0.3 M2.24 130.47 C43.39 79.68, 85.62 32.37, 115.74 -0.09 M2.24 130.47 C39.86 85.91, 76.79 42.48, 115.74 -0.09 M3.94 134.61 C29.42 104.13, 52.98 79.22, 120.72 0.27 M3.94 134.61 C37.37 94.1, 71.47 54.96, 120.72 0.27 M5.65 138.74 C43.06 97.54, 80.66 53.61, 126.37 -0.13 M5.65 138.74 C44.02 92.18, 84.93 46.28, 126.37 -0.13 M8.67 141.36 C38.4 109.46, 66.12 77.88, 131.35 0.23 M8.67 141.36 C51.09 92.74, 94.06 43.13, 131.35 0.23 M11.69 143.99 C41.52 110.24, 70.68 77.57, 137 -0.16 M11.69 143.99 C50.95 102.1, 86 58.87, 137 -0.16 M14.71 146.61 C46.28 113.78, 73.38 81.42, 141.98 0.2 M14.71 146.61 C40.67 117.25, 67.41 87.31, 141.98 0.2 M19.04 147.73 C42.57 116, 72.48 86.22, 147.63 -0.2 M19.04 147.73 C52.32 109.77, 87.07 71.71, 147.63 -0.2 M23.37 148.84 C52.05 118.87, 76.79 86.19, 152.61 0.16 M23.37 148.84 C51.52 115.91, 80.89 82.19, 152.61 0.16 M27.7 149.96 C76.86 94.3, 123.05 39.29, 158.26 -0.23 M27.7 149.96 C70.68 99.68, 115.36 49.11, 158.26 -0.23 M32.69 150.32 C68.17 112.43, 99.86 73.07, 163.24 0.13 M32.69 150.32 C76.14 97.86, 118.67 49.59, 163.24 0.13 M37.67 150.68 C77.41 105.57, 115.76 59.33, 168.89 -0.27 M37.67 150.68 C76.79 107.94, 114.66 64.26, 168.89 -0.27 M43.32 150.28 C96.2 90.63, 144.57 30.9, 173.87 0.09 M43.32 150.28 C85.88 101.31, 126.68 54.38, 173.87 0.09 M48.3 150.64 C81.24 109.64, 118.64 66.82, 178.86 0.45 M48.3 150.64 C97.95 94.91, 146.43 39.34, 178.86 0.45 M53.95 150.25 C96.4 100.24, 138.71 50.59, 184.5 0.06 M53.95 150.25 C98.28 99.34, 141.59 46.58, 184.5 0.06 M58.94 150.61 C109.41 92.22, 159.93 32.87, 189.49 0.42 M58.94 150.61 C91.4 111.69, 126.96 71.87, 189.49 0.42 M64.58 150.21 C104.36 104.86, 145.38 56.97, 195.13 0.03 M64.58 150.21 C91.79 117.62, 121.32 85.06, 195.13 0.03 M69.57 150.57 C100.22 118.81, 126.78 83.57, 200.12 0.39 M69.57 150.57 C112.88 100.05, 157.83 49.32, 200.12 0.39 M75.21 150.18 C105.99 115.58, 140.68 78.26, 205.76 -0.01 M75.21 150.18 C117.65 101.65, 158.74 53.3, 205.76 -0.01 M80.2 150.54 C129.03 89.74, 182.72 32.8, 210.75 0.35 M80.2 150.54 C106.03 119.87, 134.66 86.5, 210.75 0.35 M85.84 150.14 C118.25 112.36, 147.82 76.43, 216.39 -0.04 M85.84 150.14 C126.75 103.52, 168.75 57.43, 216.39 -0.04 M90.83 150.5 C120.19 116.88, 151.01 80.62, 221.38 0.32 M90.83 150.5 C143.8 90.87, 196.18 32.34, 221.38 0.32 M96.47 150.11 C121.54 117.69, 150.27 85.81, 227.02 -0.08 M96.47 150.11 C148.79 91.15, 201.24 30.16, 227.02 -0.08 M101.46 150.47 C136 109.04, 169.93 71.15, 232.01 0.28 M101.46 150.47 C129.72 119.28, 159.43 85.83, 232.01 0.28 M106.44 150.83 C140 109.07, 175.38 72.05, 237.65 -0.11 M106.44 150.83 C140.56 112.29, 172 75.77, 237.65 -0.11 M112.09 150.43 C155.08 100.49, 199.15 50.44, 242.64 0.25 M112.09 150.43 C155.85 99.26, 199.98 50.09, 242.64 0.25 M117.07 150.8 C163.32 93.76, 212.53 38.35, 248.28 -0.15 M117.07 150.8 C156.1 104.87, 197.27 58.37, 248.28 -0.15 M122.72 150.4 C162.34 105.42, 201.02 59.85, 253.27 0.21 M122.72 150.4 C171.97 89.9, 222.92 32.72, 253.27 0.21 M127.7 150.76 C157.47 117.91, 187.65 81.45, 258.91 -0.18 M127.7 150.76 C163.02 108.36, 198.8 66.59, 258.91 -0.18 M133.35 150.37 C175.56 103.91, 218.39 56.9, 263.9 0.18 M133.35 150.37 C180.79 95.8, 229.8 41.17, 263.9 0.18 M138.33 150.73 C170.58 114.5, 205.41 75.4, 269.54 -0.22 M138.33 150.73 C169.2 115.58, 199.28 81.74, 269.54 -0.22 M143.98 150.33 C192.7 95.23, 240.58 39.72, 274.53 0.14 M143.98 150.33 C176.33 114.45, 207.77 77.15, 274.53 0.14 M148.96 150.69 C197.5 96.03, 243.97 41.19, 279.52 0.5 M148.96 150.69 C185.92 108.28, 222.6 64, 279.52 0.5 M154.61 150.3 C199.92 96.06, 244.03 46.73, 283.85 1.62 M154.61 150.3 C198.1 103.19, 238.58 55.06, 283.85 1.62 M159.59 150.66 C208.82 95.01, 256.4 38.04, 288.18 2.73 M159.59 150.66 C203.45 100.2, 246.4 48.72, 288.18 2.73 M165.24 150.26 C210.25 98.73, 251.09 48.77, 291.86 4.6 M165.24 150.26 C206.02 102.7, 248.79 53.67, 291.86 4.6 M170.22 150.62 C200.91 115.06, 235.39 79.69, 294.87 7.23 M170.22 150.62 C217.78 98.38, 263.22 44.39, 294.87 7.23 M175.87 150.23 C218.93 100.84, 265.21 48.87, 297.89 9.85 M175.87 150.23 C209.18 112.42, 243.86 72.57, 297.89 9.85 M180.85 150.59 C208.1 119.07, 235.78 85.82, 300.91 12.48 M180.85 150.59 C215.37 110.49, 249.72 70.89, 300.91 12.48 M186.5 150.19 C215.21 117.83, 241 86.05, 302.62 16.61 M186.5 150.19 C211.14 120.24, 238.33 90.86, 302.62 16.61 M191.48 150.55 C220.89 113.89, 254.72 78.9, 303.67 21.5 M191.48 150.55 C221.18 114.89, 250.55 80.65, 303.67 21.5 M197.13 150.16 C226.58 114.57, 258.26 80.75, 304.72 26.39 M197.13 150.16 C230.4 110.4, 265.15 70.92, 304.72 26.39 M202.11 150.52 C228.07 119.92, 256.8 87.84, 305.11 32.03 M202.11 150.52 C231.44 117.25, 261.6 83.68, 305.11 32.03 M207.76 150.12 C232.12 123.2, 254.92 96.51, 304.85 38.43 M207.76 150.12 C238.55 114.32, 271.4 77.76, 304.85 38.43 M212.74 150.48 C247.47 112.12, 285.26 68.7, 305.25 44.07 M212.74 150.48 C244.56 113.71, 276.07 78.34, 305.25 44.07 M217.73 150.84 C253.15 112.55, 284.86 71.54, 304.99 50.47 M217.73 150.84 C248.18 115.11, 278.62 81.09, 304.99 50.47 M223.37 150.45 C247.32 118.32, 272.31 91.78, 305.38 56.11 M223.37 150.45 C240.66 130.25, 257.68 111.02, 305.38 56.11 M228.36 150.81 C258.23 120.07, 283.57 86.89, 305.12 62.51 M228.36 150.81 C249.31 126.64, 269.35 102.59, 305.12 62.51 M234 150.42 C255.21 129.19, 273.88 105.78, 304.86 68.91 M234 150.42 C260.09 120.28, 285.03 92.43, 304.86 68.91 M238.99 150.78 C262.78 125.76, 284.81 95.39, 305.25 74.55 M238.99 150.78 C258.69 127.2, 279.14 104.32, 305.25 74.55 M244.63 150.38 C268.46 122.51, 292.94 95.89, 304.99 80.95 M244.63 150.38 C266.96 124.95, 290.04 97.8, 304.99 80.95 M249.62 150.74 C269.54 128.55, 286.66 106.59, 305.39 86.59 M249.62 150.74 C266.12 131.54, 282.29 113.63, 305.39 86.59 M255.26 150.35 C268.41 136.31, 281.11 118.86, 305.12 92.99 M255.26 150.35 C271.6 131.54, 288.59 110.87, 305.12 92.99 M260.25 150.71 C271.51 138.94, 280.88 126.68, 304.86 99.39 M260.25 150.71 C275.93 132.07, 291.43 114.58, 304.86 99.39 M265.89 150.31 C277.99 139.64, 287.37 124.58, 305.26 105.03 M265.89 150.31 C276.92 138.2, 287.39 124.67, 305.26 105.03 M270.88 150.67 C282.1 138.98, 289.64 128.55, 305 111.43 M270.88 150.67 C280.13 139.51, 288.77 130.42, 305 111.43 M276.52 150.28 C283.79 141.56, 289.5 133.69, 305.39 117.07 M276.52 150.28 C285.11 139.59, 293.21 129.84, 305.39 117.07 M282.82 149.13 C293.47 138.2, 299.23 127.05, 305.13 123.47 M282.82 149.13 C289.21 140.89, 294.93 133.56, 305.13 123.47 M289.78 147.22 C292.61 144.45, 296.58 136.06, 302.24 132.88 M289.78 147.22 C292.36 144.35, 297.18 140.19, 302.24 132.88" stroke="#e9ecef" stroke-width="0.5" fill="none"/>
    <path d="M32 0 C81.39 -1.56, 127.45 -0.06, 273 0 M32 0 C85.87 -2.37, 141.52 -0.94, 273 0 M273 0 C296.06 -0.2, 304.2 11.03, 305 32 M273 0 C294.94 -1.01, 305.57 11.83, 305 32 M305 32 C304.47 59.52, 303.35 89.79, 305 118 M305 32 C305.2 48.71, 305.5 66.03, 305 118 M305 118 C306.44 137.35, 293.23 151.54, 273 150 M305 118 C305.86 140.12, 295.02 151.59, 273 150 M273 150 C193.27 147.34, 115.31 148.74, 32 150 M273 150 C200.43 150.18, 126.98 150.27, 32 150 M32 150 C12.18 149.44, -1.09 139.1, 0 118 M32 150 C12.86 151.96, 1.01 140.83, 0 118 M0 118 C1.25 99.35, -0.16 78.53, 0 32 M0 118 C-0.27 84.51, 0.47 52.1, 0 32 M0 32 C-1.13 10.79, 10.94 -1.96, 32 0 M0 32 C0.58 12.79, 9.09 0.85, 32 0" stroke="#1e1e1e" stroke-width="1" fill="none"/>
  </g>
  <g transform="translate(439.1883306292732 120.35833757349582) rotate(0 134.765625 60)">
    <text x="0" y="0" font-family="Cascadia, Segoe UI Emoji" font-size="20px" fill="#1e1e1e" text-anchor="start" style="white-space: pre;" direction="ltr" dominant-baseline="text-before-edge">fn () </text>
    <text x="0" y="24" font-family="Cascadia, Segoe UI Emoji" font-size="20px" fill="#1e1e1e" text-anchor="start" style="white-space: pre;" direction="ltr" dominant-baseline="text-before-edge">{</text>
    <text x="0" y="48" font-family="Cascadia, Segoe UI Emoji" font-size="20px" fill="#1e1e1e" text-anchor="start" style="white-space: pre;" direction="ltr" dominant-baseline="text-before-edge">if (count == 3) return;</text>
    <text x="0" y="72" font-family="Cascadia, Segoe UI Emoji" font-size="20px" fill="#1e1e1e" text-anchor="start" style="white-space: pre;" direction="ltr" dominant-baseline="text-before-edge">count++; fn () </text>
    <text x="0" y="96" font-family="Cascadia, Segoe UI Emoji" font-size="20px" fill="#1e1e1e" text-anchor="start" style="white-space: pre;" direction="ltr" dominant-baseline="text-before-edge">}</text>
  </g>
  <g stroke-linecap="round" transform="translate(749.2872889626066 102.13611535127365) rotate(0 152.5 75)">
    <path d="M7.86 8.16 C7.86 8.16, 7.86 8.16, 7.86 8.16 M7.86 8.16 C7.86 8.16, 7.86 8.16, 7.86 8.16 M2.35 20.59 C6.85 12.37, 11.73 8.87, 18.1 2.48 M2.35 20.59 C7.11 16.23, 12.09 11.33, 18.1 2.48 M1.43 27.75 C6.24 24.04, 11.9 18.14, 24.4 1.33 M1.43 27.75 C10.18 17.3, 18.34 8.15, 24.4 1.33 M1.17 34.14 C13.01 22.9, 20.55 12.52, 30.7 0.18 M1.17 34.14 C9.32 25.51, 16.75 17.39, 30.7 0.18 M0.91 40.54 C7.89 34.01, 14.19 21.79, 36.34 -0.21 M0.91 40.54 C11.92 28.29, 21.26 17.11, 36.34 -0.21 M1.31 46.19 C14.96 31.51, 29.25 16.5, 41.33 0.15 M1.31 46.19 C14.1 32.35, 26.61 18.1, 41.33 0.15 M1.04 52.58 C21.37 30.54, 39.74 10.52, 46.97 -0.25 M1.04 52.58 C14.68 37.22, 29.37 19.8, 46.97 -0.25 M1.44 58.23 C17.69 39.42, 34.51 20.18, 51.96 0.11 M1.44 58.23 C16.82 39.35, 34.8 19.47, 51.96 0.11 M1.18 64.62 C16.66 43.57, 36.16 25.89, 57.6 -0.28 M1.18 64.62 C21.02 43.37, 39.35 20.48, 57.6 -0.28 M0.92 71.02 C13.37 55.56, 26.86 37.48, 62.59 0.08 M0.92 71.02 C24.91 42.75, 49.29 15.53, 62.59 0.08 M1.31 76.67 C27.54 50.57, 49.79 20.26, 67.57 0.44 M1.31 76.67 C13.85 61.3, 28.63 43.86, 67.57 0.44 M1.05 83.06 C27.72 49.08, 57.97 18.34, 73.22 0.04 M1.05 83.06 C17.66 64.82, 33.23 46.36, 73.22 0.04 M1.44 88.71 C23.68 59.3, 48.46 31.45, 78.2 0.41 M1.44 88.71 C28.05 59.28, 51.91 31.14, 78.2 0.41 M1.18 95.1 C15.94 75.6, 36.97 53.01, 83.85 0.01 M1.18 95.1 C28.13 65.03, 53.21 35.73, 83.85 0.01 M0.92 101.5 C34.74 62.79, 71.54 22.44, 88.83 0.37 M0.92 101.5 C20.33 78.07, 40.84 53.93, 88.83 0.37 M1.32 107.14 C36.17 64.14, 73.5 21.05, 94.48 -0.02 M1.32 107.14 C21.63 82.56, 42.55 60.72, 94.48 -0.02 M1.05 113.54 C24.11 89.59, 44.1 63.68, 99.46 0.34 M1.05 113.54 C27.32 82.86, 53.98 52.38, 99.46 0.34 M1.45 119.19 C27.97 89.95, 53.49 58.51, 105.11 -0.06 M1.45 119.19 C27.45 91.04, 52.08 60.33, 105.11 -0.06 M1.19 125.58 C26.94 95.08, 53.78 65.97, 110.09 0.3 M1.19 125.58 C33.69 90.12, 65.39 52.14, 110.09 0.3 M2.24 130.47 C26.08 104.06, 49.46 75, 115.74 -0.09 M2.24 130.47 C45.34 81.61, 88.76 31.21, 115.74 -0.09 M3.94 134.61 C39 95.42, 72.4 57.94, 120.72 0.27 M3.94 134.61 C46.22 83.76, 88.68 34.18, 120.72 0.27 M5.65 138.74 C43.43 91.88, 82.42 44.88, 126.37 -0.13 M5.65 138.74 C46.25 90.35, 89.01 43.46, 126.37 -0.13 M8.67 141.36 C39.13 105.41, 66.12 71.28, 131.35 0.23 M8.67 141.36 C42.71 102.85, 77.09 64.93, 131.35 0.23 M11.69 143.99 C58.18 90.12, 103.65 38.12, 137 -0.16 M11.69 143.99 C55.39 94.24, 98.76 45.04, 137 -0.16 M14.71 146.61 C63.9 90.91, 111.98 36.95, 141.98 0.2 M14.71 146.61 C41.61 116.53, 65.92 88.35, 141.98 0.2 M19.04 147.73 C59.75 102.36, 96 59.79, 147.63 -0.2 M19.04 147.73 C62.68 100.75, 104.26 52.65, 147.63 -0.2 M23.37 148.84 C76.17 88.55, 127.72 32.24, 152.61 0.16 M23.37 148.84 C56.38 113, 88.6 75.52, 152.61 0.16 M27.7 149.96 C78.33 91.8, 129.28 30.18, 158.26 -0.23 M27.7 149.96 C67.82 101.12, 107.92 55.34, 158.26 -0.23 M32.69 150.32 C84.38 91.85, 131.64 33.49, 163.24 0.13 M32.69 150.32 C74.37 102.87, 116.2 53.81, 163.24 0.13 M37.67 150.68 C85.97 93.78, 136.83 35.35, 168.89 -0.27 M37.67 150.68 C74.12 108.97, 112.2 66.73, 168.89 -0.27 M43.32 150.28 C78.57 107.31, 118.8 65.5, 173.87 0.09 M43.32 150.28 C74.65 114.58, 107.9 75.96, 173.87 0.09 M48.3 150.64 C81.24 110.96, 116.15 69.01, 178.86 0.45 M48.3 150.64 C83.85 109.09, 120.42 67.14, 178.86 0.45 M53.95 150.25 C84.44 116.41, 115.17 81.5, 184.5 0.06 M53.95 150.25 C87.28 111.49, 121.67 71.69, 184.5 0.06 M58.94 150.61 C92.93 112.31, 128.43 69.32, 189.49 0.42 M58.94 150.61 C95.56 107.05, 134.39 63.16, 189.49 0.42 M64.58 150.21 C110.61 95.83, 158.49 39.86, 195.13 0.03 M64.58 150.21 C103.74 105.09, 142.34 59.14, 195.13 0.03 M69.57 150.57 C116.83 95.41, 160.8 41.88, 200.12 0.39 M69.57 150.57 C120.28 91.54, 171.57 32.92, 200.12 0.39 M75.21 150.18 C110 112.16, 140.77 75.36, 205.76 -0.01 M75.21 150.18 C117.63 103.54, 159.78 55.97, 205.76 -0.01 M80.2 150.54 C113.96 111.95, 150.57 69.13, 210.75 0.35 M80.2 150.54 C106.4 120.55, 133.02 90.02, 210.75 0.35 M85.84 150.14 C125.13 104.07, 161.42 64.14, 216.39 -0.04 M85.84 150.14 C137.19 91.12, 188.49 33.78, 216.39 -0.04 M90.83 150.5 C128.06 110.63, 165.8 68.3, 221.38 0.32 M90.83 150.5 C142.76 89.49, 194.25 30.67, 221.38 0.32 M96.47 150.11 C127.81 113.41, 155.14 79.95, 227.02 -0.08 M96.47 150.11 C146.69 95.86, 195.8 38.86, 227.02 -0.08 M101.46 150.47 C140.47 106.25, 174.85 63.68, 232.01 0.28 M101.46 150.47 C130.74 116.38, 158.97 82.29, 232.01 0.28 M106.44 150.83 C149.66 105.02, 190.33 56.69, 237.65 -0.11 M106.44 150.83 C142.54 109.3, 179.27 68.54, 237.65 -0.11 M112.09 150.43 C149.04 107.78, 186.4 63.6, 242.64 0.25 M112.09 150.43 C165.41 90.76, 216.78 30.91, 242.64 0.25 M117.07 150.8 C161.72 97.94, 209.57 47.29, 248.28 -0.15 M117.07 150.8 C153.89 110.1, 190.12 67.03, 248.28 -0.15 M122.72 150.4 C160.47 107.57, 196.89 64.68, 253.27 0.21 M122.72 150.4 C170.47 95.18, 219.65 40.16, 253.27 0.21 M127.7 150.76 C178.45 91.96, 228.56 36.9, 258.91 -0.18 M127.7 150.76 C168.69 103.75, 207.97 58, 258.91 -0.18 M133.35 150.37 C162.81 116.97, 193.83 82.41, 263.9 0.18 M133.35 150.37 C169.86 109.23, 205.6 67.96, 263.9 0.18 M138.33 150.73 C171.67 116.68, 200.69 82.64, 269.54 -0.22 M138.33 150.73 C173.81 112.55, 208.49 71.89, 269.54 -0.22 M143.98 150.33 C177.11 113.9, 206.73 77.72, 274.53 0.14 M143.98 150.33 C196.95 90.67, 248.56 30.7, 274.53 0.14 M148.96 150.69 C200.78 88.76, 250.95 31.72, 279.52 0.5 M148.96 150.69 C200.55 91.92, 251.87 33.34, 279.52 0.5 M154.61 150.3 C202.25 94.62, 252.15 34.37, 283.85 1.62 M154.61 150.3 C192.18 107.59, 230.18 65.08, 283.85 1.62 M159.59 150.66 C199.49 103.31, 240.83 52.97, 288.18 2.73 M159.59 150.66 C201.66 102.99, 243.97 52.54, 288.18 2.73 M165.24 150.26 C209.41 99.37, 254.3 48.28, 291.86 4.6 M165.24 150.26 C199.24 112.93, 232.68 74.26, 291.86 4.6 M170.22 150.62 C213.34 103.9, 253 56.87, 294.87 7.23 M170.22 150.62 C199.72 117.6, 227.46 84.98, 294.87 7.23 M175.87 150.23 C210.45 110.46, 246.02 67.37, 297.89 9.85 M175.87 150.23 C209.96 110.84, 245.12 70.7, 297.89 9.85 M180.85 150.59 C215.26 111.17, 250.81 70.14, 300.91 12.48 M180.85 150.59 C211.48 116.26, 241.12 80.84, 300.91 12.48 M186.5 150.19 C211.51 120.49, 239.74 88.14, 302.62 16.61 M186.5 150.19 C219.26 111.8, 252.88 74.54, 302.62 16.61 M191.48 150.55 C232.1 106.64, 271.63 59.56, 303.67 21.5 M191.48 150.55 C223.01 116.35, 254.89 79.12, 303.67 21.5 M197.13 150.16 C226.7 118.48, 256.73 84.82, 304.72 26.39 M197.13 150.16 C223.99 116.89, 252.54 86.18, 304.72 26.39 M202.11 150.52 C226.25 121.79, 249 96.54, 305.11 32.03 M202.11 150.52 C241.35 104.11, 281.17 58.13, 305.11 32.03 M207.76 150.12 C241.32 113.71, 272.31 76.38, 304.85 38.43 M207.76 150.12 C244.39 109.33, 278.25 69.37, 304.85 38.43 M212.74 150.48 C237.96 122.07, 263.61 90.31, 305.25 44.07 M212.74 150.48 C248.55 108.17, 284.14 68.54, 305.25 44.07 M217.73 150.84 C243.6 122.69, 265.39 97.02, 304.99 50.47 M217.73 150.84 C253.33 111.17, 287.16 71.67, 304.99 50.47 M223.37 150.45 C243.89 126.37, 266.48 103.7, 305.38 56.11 M223.37 150.45 C244.21 126.57, 265.31 100.63, 305.38 56.11 M228.36 150.81 C257.13 119.78, 284.48 90.95, 305.12 62.51 M228.36 150.81 C254.73 120.2, 281.59 87.4, 305.12 62.51 M234 150.42 C259.55 124.34, 280.1 95.12, 304.86 68.91 M234 150.42 C260.5 120.7, 285.62 92.01, 304.86 68.91 M238.99 150.78 C261.73 125.64, 281.09 100.28, 305.25 74.55 M238.99 150.78 C255.19 130.99, 273.93 111.44, 305.25 74.55 M244.63 150.38 C263.84 131.4, 280.98 107.26, 304.99 80.95 M244.63 150.38 C267.61 122.39, 290.85 97.14, 304.99 80.95 M249.62 150.74 C271.69 128.76, 290.73 104.48, 305.39 86.59 M249.62 150.74 C268.61 131.13, 286.56 109.89, 305.39 86.59 M255.26 150.35 C275.13 128.99, 294.73 106.33, 305.12 92.99 M255.26 150.35 C275.24 126.98, 294.29 106.15, 305.12 92.99 M260.25 150.71 C276.21 131.31, 295.95 107.76, 304.86 99.39 M260.25 150.71 C278.1 130.92, 294.7 111.54, 304.86 99.39 M265.89 150.31 C281.61 135.84, 295.18 117.43, 305.26 105.03 M265.89 150.31 C275.03 140.68, 283.64 128.79, 305.26 105.03 M270.88 150.67 C283.03 139.47, 292.39 126.89, 305 111.43 M270.88 150.67 C280.69 139.66, 290.41 128.42, 305 111.43 M276.52 150.28 C284.4 140.53, 294.44 131.67, 305.39 117.07 M276.52 150.28 C284.78 142.57, 291.3 134.04, 305.39 117.07 M282.82 149.13 C290.3 142.12, 297.09 132.94, 305.13 123.47 M282.82 149.13 C288.66 141.14, 295.93 133.51, 305.13 123.47 M289.78 147.22 C291.77 142.28, 296.36 142.61, 302.24 132.88 M289.78 147.22 C293.31 143.86, 294.82 141.04, 302.24 132.88" stroke="#e9ecef" stroke-width="0.5" fill="none"/>
    <path d="M32 0 C128.08 -1.19, 222.12 -1.46, 273 0 M32 0 C88.5 1.43, 145.78 1.57, 273 0 M273 0 C294.87 0.54, 305.23 11.8, 305 32 M273 0 C292.12 -1.03, 306.06 8.55, 305 32 M305 32 C305.13 52.52, 304.43 73.55, 305 118 M305 32 C304.99 62.39, 304.9 92.49, 305 118 M305 118 C303.73 141.32, 294.28 151.65, 273 150 M305 118 C305.32 140.71, 296.26 149.9, 273 150 M273 150 C222.56 150.35, 170.06 150.78, 32 150 M273 150 C212.69 151.82, 153.08 151.08, 32 150 M32 150 C11.05 148.13, -0.44 139.12, 0 118 M32 150 C10.79 150.9, -2.17 141.52, 0 118 M0 118 C2.6 87.67, -0.25 55.29, 0 32 M0 118 C1.79 85.53, -0.03 51.35, 0 32 M0 32 C-1.98 11.2, 10.78 -1.98, 32 0 M0 32 C-1.39 8.98, 12.22 0.37, 32 0" stroke="#1e1e1e" stroke-width="1" fill="none"/>
  </g>
  <g transform="translate(772.5216639626066 118.13611535127365) rotate(0 134.765625 60)">
    <text x="0" y="0" font-family="Cascadia, Segoe UI Emoji" font-size="20px" fill="#1e1e1e" text-anchor="start" style="white-space: pre;" direction="ltr" dominant-baseline="text-before-edge">fn () </text>
    <text x="0" y="24" font-family="Cascadia, Segoe UI Emoji" font-size="20px" fill="#1e1e1e" text-anchor="start" style="white-space: pre;" direction="ltr" dominant-baseline="text-before-edge">{</text>
    <text x="0" y="48" font-family="Cascadia, Segoe UI Emoji" font-size="20px" fill="#1e1e1e" text-anchor="start" style="white-space: pre;" direction="ltr" dominant-baseline="text-before-edge">if (count == 3) return;</text>
    <text x="0" y="72" font-family="Cascadia, Segoe UI Emoji" font-size="20px" fill="#1e1e1e" text-anchor="start" style="white-space: pre;" direction="ltr" dominant-baseline="text-before-edge">count++; fn () </text>
    <text x="0" y="96" font-family="Cascadia, Segoe UI Emoji" font-size="20px" fill="#1e1e1e" text-anchor="start" style="white-space: pre;" direction="ltr" dominant-baseline="text-before-edge">}</text>
  </g>
  <g stroke-linecap="round" transform="translate(1079.287288962606 94.35833757349587) rotate(0 152.5 75)">
    <path d="M7.86 8.16 C7.86 8.16, 7.86 8.16, 7.86 8.16 M7.86 8.16 C7.86 8.16, 7.86 8.16, 7.86 8.16 M2.35 20.59 C6.82 13.98, 9.66 9.19, 18.1 2.48 M2.35 20.59 C6.92 15.7, 12.03 7.81, 18.1 2.48 M1.43 27.75 C5.95 22.7, 15.2 14.95, 24.4 1.33 M1.43 27.75 C10.01 19.68, 17.27 9.35, 24.4 1.33 M1.17 34.14 C10.69 25.06, 21.23 10.79, 30.7 0.18 M1.17 34.14 C6.75 26.71, 14.48 18.47, 30.7 0.18 M0.91 40.54 C13.58 28.09, 24.72 16.02, 36.34 -0.21 M0.91 40.54 C9.78 29.58, 20.82 17.7, 36.34 -0.21 M1.31 46.19 C12.22 31.81, 25.87 17.1, 41.33 0.15 M1.31 46.19 C12.22 32.31, 24.1 18.45, 41.33 0.15 M1.04 52.58 C14.91 35.98, 28.75 20.41, 46.97 -0.25 M1.04 52.58 C17.44 33.21, 32.77 15.87, 46.97 -0.25 M1.44 58.23 C20 38.1, 35.28 18.93, 51.96 0.11 M1.44 58.23 C12.56 44.32, 25.34 30.45, 51.96 0.11 M1.18 64.62 C14.97 48, 27.57 33.19, 57.6 -0.28 M1.18 64.62 C13.67 49.4, 26.52 34.93, 57.6 -0.28 M0.92 71.02 C19.04 49.35, 37.04 29.99, 62.59 0.08 M0.92 71.02 C15.89 52, 32.45 33.3, 62.59 0.08 M1.31 76.67 C16.16 60.66, 32.27 43.61, 67.57 0.44 M1.31 76.67 C25.83 46.9, 50.84 17.32, 67.57 0.44 M1.05 83.06 C21.97 56.2, 42.97 30.88, 73.22 0.04 M1.05 83.06 C21.61 58.14, 42.41 35.45, 73.22 0.04 M1.44 88.71 C20.09 67.38, 37.19 50.58, 78.2 0.41 M1.44 88.71 C31.86 54.61, 62.34 19.61, 78.2 0.41 M1.18 95.1 C22.52 72.69, 41.94 48.2, 83.85 0.01 M1.18 95.1 C28.57 64.78, 54.15 33.62, 83.85 0.01 M0.92 101.5 C35.22 60.69, 69.89 19.64, 88.83 0.37 M0.92 101.5 C21.97 77.18, 45.61 51.69, 88.83 0.37 M1.32 107.14 C38.81 64.67, 72.42 22.3, 94.48 -0.02 M1.32 107.14 C34.54 72.11, 65.34 33.49, 94.48 -0.02 M1.05 113.54 C36.48 72.1, 70.71 32.14, 99.46 0.34 M1.05 113.54 C28.5 81.18, 56.69 49.56, 99.46 0.34 M1.45 119.19 C30.53 86.26, 59.59 49.66, 105.11 -0.06 M1.45 119.19 C39.36 76.6, 75.95 33.99, 105.11 -0.06 M1.19 125.58 C29.59 91.1, 61.29 53.95, 110.09 0.3 M1.19 125.58 C40.78 80.3, 81.35 33.88, 110.09 0.3 M2.24 130.47 C45.12 82.03, 84.51 33.79, 115.74 -0.09 M2.24 130.47 C41.44 85.01, 82.33 39.15, 115.74 -0.09 M3.94 134.61 C29.89 105.17, 56.41 74.91, 120.72 0.27 M3.94 134.61 C46.01 84.79, 91.38 34.09, 120.72 0.27 M5.65 138.74 C47.8 94.25, 85.86 46.48, 126.37 -0.13 M5.65 138.74 C49.84 87.52, 93.4 35.48, 126.37 -0.13 M8.67 141.36 C51.6 92.07, 93.43 39.99, 131.35 0.23 M8.67 141.36 C47.53 96.44, 86.01 50.57, 131.35 0.23 M11.69 143.99 C50.99 104.64, 87.1 62.62, 137 -0.16 M11.69 143.99 C38.32 111.72, 68.11 77.86, 137 -0.16 M14.71 146.61 C63.54 92.96, 108.62 34.99, 141.98 0.2 M14.71 146.61 C58.84 93.22, 103.95 42.18, 141.98 0.2 M19.04 147.73 C54.36 104.44, 96.31 58.47, 147.63 -0.2 M19.04 147.73 C68.42 90.2, 117.38 33.51, 147.63 -0.2 M23.37 148.84 C62.53 103.35, 100.21 59.93, 152.61 0.16 M23.37 148.84 C55.73 111.41, 86.77 74.86, 152.61 0.16 M27.7 149.96 C79.64 90.7, 130.23 29.23, 158.26 -0.23 M27.7 149.96 C63.16 109.34, 97.93 68.85, 158.26 -0.23 M32.69 150.32 C63.42 111.65, 96.28 78.3, 163.24 0.13 M32.69 150.32 C68.98 109.78, 102.41 71.77, 163.24 0.13 M37.67 150.68 C86.46 97.83, 131.07 42, 168.89 -0.27 M37.67 150.68 C87.81 91.5, 137.68 33.09, 168.89 -0.27 M43.32 150.28 C74.08 115.43, 105.96 75.47, 173.87 0.09 M43.32 150.28 C80.02 107.21, 118.39 64.87, 173.87 0.09 M48.3 150.64 C96.17 94.68, 144.43 38.78, 178.86 0.45 M48.3 150.64 C95.51 94.7, 142.86 40.58, 178.86 0.45 M53.95 150.25 C84.85 112.39, 116.45 75.91, 184.5 0.06 M53.95 150.25 C94.12 104.04, 132.18 59.24, 184.5 0.06 M58.94 150.61 C98.41 102.14, 142.62 55.33, 189.49 0.42 M58.94 150.61 C100.59 103.06, 143.84 54.29, 189.49 0.42 M64.58 150.21 C107.7 102.16, 150.62 48.87, 195.13 0.03 M64.58 150.21 C105.65 102.77, 148.95 53.38, 195.13 0.03 M69.57 150.57 C111.05 106.24, 148.92 60, 200.12 0.39 M69.57 150.57 C115.12 97.79, 159.79 45.73, 200.12 0.39 M75.21 150.18 C110.54 108.71, 144.43 73.37, 205.76 -0.01 M75.21 150.18 C110.54 108.66, 145.3 68.43, 205.76 -0.01 M80.2 150.54 C126.42 99.5, 175.36 43.39, 210.75 0.35 M80.2 150.54 C125.3 98.01, 171.65 45.46, 210.75 0.35 M85.84 150.14 C130.23 98.91, 173.41 49.63, 216.39 -0.04 M85.84 150.14 C119.93 112.05, 152.08 73.4, 216.39 -0.04 M90.83 150.5 C133.61 101.27, 175.49 53.84, 221.38 0.32 M90.83 150.5 C122.6 115.37, 152.09 80.9, 221.38 0.32 M96.47 150.11 C140.46 98, 184.96 47.71, 227.02 -0.08 M96.47 150.11 C138.51 100.24, 181.56 52.15, 227.02 -0.08 M101.46 150.47 C147.28 101.63, 190.43 50.29, 232.01 0.28 M101.46 150.47 C146.65 97.04, 191.56 44.27, 232.01 0.28 M106.44 150.83 C136.2 117.42, 166.34 82.14, 237.65 -0.11 M106.44 150.83 C149.52 102.62, 191.7 51.48, 237.65 -0.11 M112.09 150.43 C159.87 96.11, 207.78 40.01, 242.64 0.25 M112.09 150.43 C141.94 116.67, 171.36 82.82, 242.64 0.25 M117.07 150.8 C143.16 118.94, 170.54 85.6, 248.28 -0.15 M117.07 150.8 C147.02 117.32, 176.12 84.77, 248.28 -0.15 M122.72 150.4 C160.13 104.6, 201.29 58.57, 253.27 0.21 M122.72 150.4 C151.29 117.4, 183.02 82.44, 253.27 0.21 M127.7 150.76 C159.85 113.37, 193.94 73.46, 258.91 -0.18 M127.7 150.76 C175.88 94.42, 224.09 38.43, 258.91 -0.18 M133.35 150.37 C165.85 116.19, 194.61 81.57, 263.9 0.18 M133.35 150.37 C171.63 106.76, 210.34 61.88, 263.9 0.18 M138.33 150.73 C188.95 92.16, 242.58 31.47, 269.54 -0.22 M138.33 150.73 C173.04 109.75, 206.92 70.34, 269.54 -0.22 M143.98 150.33 C192.25 95.69, 240.78 42.2, 274.53 0.14 M143.98 150.33 C173.67 115.34, 204.25 80.33, 274.53 0.14 M148.96 150.69 C178.54 117.48, 211.66 81.18, 279.52 0.5 M148.96 150.69 C198.38 93.83, 249.04 35.82, 279.52 0.5 M154.61 150.3 C197.67 103.12, 236.03 56.37, 283.85 1.62 M154.61 150.3 C205.25 91.15, 257.05 31.27, 283.85 1.62 M159.59 150.66 C193.39 113.33, 222.58 78.68, 288.18 2.73 M159.59 150.66 C202.9 101.51, 247 50.98, 288.18 2.73 M165.24 150.26 C196.9 117.08, 221.92 83.43, 291.86 4.6 M165.24 150.26 C189.85 119.97, 216.82 89.97, 291.86 4.6 M170.22 150.62 C201.69 114.47, 234.48 73.52, 294.87 7.23 M170.22 150.62 C212.44 99.24, 257.51 50.05, 294.87 7.23 M175.87 150.23 C204.86 119.22, 230.03 83.77, 297.89 9.85 M175.87 150.23 C203.97 116.34, 233.79 82.9, 297.89 9.85 M180.85 150.59 C225.8 97.94, 267.55 49.41, 300.91 12.48 M180.85 150.59 C218.25 106.42, 257.45 61.08, 300.91 12.48 M186.5 150.19 C212.36 119.19, 236.75 94.31, 302.62 16.61 M186.5 150.19 C228.75 102.21, 268.28 56.9, 302.62 16.61 M191.48 150.55 C215.22 121.29, 241.27 94.39, 303.67 21.5 M191.48 150.55 C215.54 122.04, 238.73 94.35, 303.67 21.5 M197.13 150.16 C222.97 121.26, 250.19 91.7, 304.72 26.39 M197.13 150.16 C233.25 110.99, 267.85 69.29, 304.72 26.39 M202.11 150.52 C236.93 109.44, 271.66 73.43, 305.11 32.03 M202.11 150.52 C228.02 120.73, 255.46 90.65, 305.11 32.03 M207.76 150.12 C235.85 116.32, 264.27 82.63, 304.85 38.43 M207.76 150.12 C231.19 122.32, 255.46 95.88, 304.85 38.43 M212.74 150.48 C232.33 129.65, 249.9 106.62, 305.25 44.07 M212.74 150.48 C240.71 116.55, 270.29 83.94, 305.25 44.07 M217.73 150.84 C235.02 131.27, 251.32 110.55, 304.99 50.47 M217.73 150.84 C247.09 117.83, 274.97 84.48, 304.99 50.47 M223.37 150.45 C255.35 111.77, 289.22 74.79, 305.38 56.11 M223.37 150.45 C251.88 118.84, 279.52 86.82, 305.38 56.11 M228.36 150.81 C248.78 126.59, 271.44 102.05, 305.12 62.51 M228.36 150.81 C248.71 128.2, 269.13 104.09, 305.12 62.51 M234 150.42 C249.61 135.21, 261.65 116.02, 304.86 68.91 M234 150.42 C258.1 123.94, 282.87 95.51, 304.86 68.91 M238.99 150.78 C254.84 131.12, 271.55 114.38, 305.25 74.55 M238.99 150.78 C256.95 128.76, 278.08 106.45, 305.25 74.55 M244.63 150.38 C256.39 134.52, 268.21 120.25, 304.99 80.95 M244.63 150.38 C268.2 123.48, 292.09 96.51, 304.99 80.95 M249.62 150.74 C267.41 128.4, 287.71 104.9, 305.39 86.59 M249.62 150.74 C267.82 129.72, 287.15 108.6, 305.39 86.59 M255.26 150.35 C272.44 131.05, 289.5 108.64, 305.12 92.99 M255.26 150.35 C273.07 128.1, 292.58 105.85, 305.12 92.99 M260.25 150.71 C272.73 136.72, 283.94 123.41, 304.86 99.39 M260.25 150.71 C271.2 138.5, 280.95 127.02, 304.86 99.39 M265.89 150.31 C276.29 137.21, 286.37 128.52, 305.26 105.03 M265.89 150.31 C278.41 135.88, 292.8 119.43, 305.26 105.03 M270.88 150.67 C283.33 136.08, 294.99 123, 305 111.43 M270.88 150.67 C283.49 135.69, 296.04 122.68, 305 111.43 M276.52 150.28 C282.36 143.17, 291.13 131.64, 305.39 117.07 M276.52 150.28 C285.16 140.38, 293.74 131.34, 305.39 117.07 M282.82 149.13 C287.98 144.9, 293.5 138.84, 305.13 123.47 M282.82 149.13 C290.47 138.8, 299.73 130.58, 305.13 123.47 M289.78 147.22 C291.17 142.82, 296.33 139.19, 302.24 132.88 M289.78 147.22 C294.6 142.08, 299.23 136.31, 302.24 132.88" stroke="#e9ecef" stroke-width="0.5" fill="none"/>
    <path d="M32 0 C86.61 0.46, 140.11 0.09, 273 0 M32 0 C88.85 -1.18, 146.7 0.23, 273 0 M273 0 C293.72 1.42, 304.47 10.23, 305 32 M273 0 C293.58 -0.23, 303.4 12.56, 305 32 M305 32 C305.95 56.4, 305.72 81.37, 305 118 M305 32 C306.06 55.88, 305.87 79.12, 305 118 M305 118 C304.22 140.33, 294.05 148.19, 273 150 M305 118 C303.14 137.91, 294.96 151.34, 273 150 M273 150 C206.45 150.06, 137.87 148.67, 32 150 M273 150 C203.58 152.37, 133.95 152.47, 32 150 M32 150 C12.05 150.3, -1.3 138.9, 0 118 M32 150 C9.2 151.78, -0.49 141.17, 0 118 M0 118 C-1.71 98.56, 0.79 78.6, 0 32 M0 118 C-0.95 99.75, -0.8 82.61, 0 32 M0 32 C-1.8 12.42, 9.55 1.38, 32 0 M0 32 C0.77 11.18, 10.08 -1.03, 32 0" stroke="#1e1e1e" stroke-width="1" fill="none"/>
  </g>
  <g transform="translate(1102.521663962606 110.35833757349587) rotate(0 134.765625 60)">
    <text x="0" y="0" font-family="Cascadia, Segoe UI Emoji" font-size="20px" fill="#1e1e1e" text-anchor="start" style="white-space: pre;" direction="ltr" dominant-baseline="text-before-edge">fn () </text>
    <text x="0" y="24" font-family="Cascadia, Segoe UI Emoji" font-size="20px" fill="#1e1e1e" text-anchor="start" style="white-space: pre;" direction="ltr" dominant-baseline="text-before-edge">{</text>
    <text x="0" y="48" font-family="Cascadia, Segoe UI Emoji" font-size="20px" fill="#1e1e1e" text-anchor="start" style="white-space: pre;" direction="ltr" dominant-baseline="text-before-edge">if (count == 3) return;</text>
    <text x="0" y="72" font-family="Cascadia, Segoe UI Emoji" font-size="20px" fill="#1e1e1e" text-anchor="start" style="white-space: pre;" direction="ltr" dominant-baseline="text-before-edge">count++; fn () </text>
    <text x="0" y="96" font-family="Cascadia, Segoe UI Emoji" font-size="20px" fill="#1e1e1e" text-anchor="start" style="white-space: pre;" direction="ltr" dominant-baseline="text-before-edge">}</text>
  </g>
  <g stroke-linecap="round">
    <g transform="translate(321.33490801022566 262.6440518592101) rotate(0 73.88501207803918 33.04877790231227)">
      <path d="M0.27 0.99 C7.58 11.56, 20.13 64.04, 44.88 64.16 C69.64 64.29, 131.44 12.22, 148.82 1.74 M-1.05 0.46 C6.56 11.17, 22.29 65.18, 47.16 65.64 C72.03 66.1, 131.09 13.77, 148.18 3.22" stroke="#1e1e1e" stroke-width="1" fill="none"/>
    </g>
    <g transform="translate(321.33490801022566 262.6440518592101) rotate(0 73.88501207803918 33.04877790231227)">
      <path d="M131.61 28.22 C139.47 17.21, 143.97 9.41, 148.18 3.22 M131.61 28.22 C137.8 19.13, 142.59 11.86, 148.18 3.22" stroke="#1e1e1e" stroke-width="1" fill="none"/>
    </g>
    <g transform="translate(321.33490801022566 262.6440518592101) rotate(0 73.88501207803918 33.04877790231227)">
      <path d="M119.41 11.72 C132.04 7.01, 141.23 5.55, 148.18 3.22 M119.41 11.72 C129.66 8.01, 138.42 6.13, 148.18 3.22" stroke="#1e1e1e" stroke-width="1" fill="none"/>
    </g>
  </g>
  <mask/>
  <g stroke-linecap="round">
    <g transform="translate(691.3349080102255 271.21548043063865) rotate(0 73.97298109632527 32.5620695020334)">
      <path d="M-0.78 -0.84 C7.12 10.06, 21.39 63.84, 46.31 64.38 C71.23 64.91, 131.66 12.77, 148.72 2.38 M1.01 1.34 C8.9 12.54, 21.17 66.1, 45.67 65.96 C70.18 65.83, 130.82 11.57, 148.04 0.54" stroke="#1e1e1e" stroke-width="1" fill="none"/>
    </g>
    <g transform="translate(691.3349080102255 271.21548043063865) rotate(0 73.97298109632527 32.5620695020334)">
      <path d="M131.75 25.73 C133.99 21.52, 138.97 15.48, 148.04 0.54 M131.75 25.73 C138.19 16.76, 143.48 7.51, 148.04 0.54" stroke="#1e1e1e" stroke-width="1" fill="none"/>
    </g>
    <g transform="translate(691.3349080102255 271.21548043063865) rotate(0 73.97298109632527 32.5620695020334)">
      <path d="M119.37 9.36 C124.08 8.68, 131.66 6.09, 148.04 0.54 M119.37 9.36 C130.52 6.54, 140.51 3.5, 148.04 0.54" stroke="#1e1e1e" stroke-width="1" fill="none"/>
    </g>
  </g>
  <mask/>
  <g stroke-linecap="round">
    <g transform="translate(1029.9063365816537 265.501194716353) rotate(0 74.75087889735198 32.43716266116797)">
      <path d="M1.12 0.43 C8.72 10.95, 21.18 63.59, 45.87 63.91 C70.56 64.24, 132.16 12.87, 149.25 2.37 M0.26 -0.38 C7.67 10.23, 20.24 65.11, 45 65.26 C69.77 65.41, 131.57 11.1, 148.83 0.53" stroke="#1e1e1e" stroke-width="1" fill="none"/>
    </g>
    <g transform="translate(1029.9063365816537 265.501194716353) rotate(0 74.75087889735198 32.43716266116797)">
      <path d="M132.22 25.51 C138.2 17.44, 142.29 10.14, 148.83 0.53 M132.22 25.51 C137.85 16.85, 144.33 5.82, 148.83 0.53" stroke="#1e1e1e" stroke-width="1" fill="none"/>
    </g>
    <g transform="translate(1029.9063365816537 265.501194716353) rotate(0 74.75087889735198 32.43716266116797)">
      <path d="M120.05 8.98 C130.13 6.21, 138.2 4.31, 148.83 0.53 M120.05 8.98 C130.27 6.63, 141.36 1.86, 148.83 0.53" stroke="#1e1e1e" stroke-width="1" fill="none"/>
    </g>
  </g>
  <mask/>
  <g stroke-linecap="round">
    <g transform="translate(1351.3349080102253 252.6440518592102) rotate(0 53.452045404260616 1.6140685961746613)">
      <path d="M0.88 0.58 C8.41 11.33, 28.68 74.07, 46.37 63.82 C64.06 53.56, 97.01 -40.24, 107.03 -60.94 M-0.12 -0.16 C7.21 10.81, 28.04 75.58, 45.76 65.11 C63.48 54.63, 96.11 -41.77, 106.2 -63.02" stroke="#1e1e1e" stroke-width="1" fill="none"/>
    </g>
    <g transform="translate(1351.3349080102253 252.6440518592102) rotate(0 53.452045404260616 1.6140685961746613)">
      <path d="M105.16 -33.04 C106.71 -43.83, 105.37 -56.99, 106.2 -63.02 M105.16 -33.04 C105.24 -44.16, 106.51 -53.48, 106.2 -63.02" stroke="#1e1e1e" stroke-width="1" fill="none"/>
    </g>
    <g transform="translate(1351.3349080102253 252.6440518592102) rotate(0 53.452045404260616 1.6140685961746613)">
      <path d="M86.13 -40.72 C95.17 -48.61, 101.37 -58.72, 106.2 -63.02 M86.13 -40.72 C92.65 -49.39, 100.41 -56.09, 106.2 -63.02" stroke="#1e1e1e" stroke-width="1" fill="none"/>
    </g>
  </g>
  <mask/>
  <g stroke-linecap="round" transform="translate(979.7490143098303 476.0589423573329) rotate(0 105.15222040120005 151.33902019143997)">
    <path d="M32 0 C67.29 1.05, 106.66 0.45, 178.3 0 M32 0 C78.59 1.67, 124.97 1.43, 178.3 0 M178.3 0 C198.56 -1.47, 211 11.43, 210.3 32 M178.3 0 C198.35 -1.69, 211.12 10.45, 210.3 32 M210.3 32 C211.81 116.43, 211.46 202.33, 210.3 270.68 M210.3 32 C207.83 101.01, 208.95 168.93, 210.3 270.68 M210.3 270.68 C209.76 291.11, 197.67 303.46, 178.3 302.68 M210.3 270.68 C212.26 294.04, 199.1 302.7, 178.3 302.68 M178.3 302.68 C147.14 301.44, 116.97 304.5, 32 302.68 M178.3 302.68 C136.23 301.38, 93.88 301.72, 32 302.68 M32 302.68 C11.52 300.83, -1.12 293.92, 0 270.68 M32 302.68 C11.11 303.03, -2.09 290.19, 0 270.68 M0 270.68 C-0.99 217.96, -1.43 164.59, 0 32 M0 270.68 C-1.17 208.28, -1.29 146.18, 0 32 M0 32 C0.9 12.02, 10.85 1.75, 32 0 M0 32 C-1.93 12.29, 10.47 -0.51, 32 0" stroke="#1e1e1e" stroke-width="1" fill="none"/>
  </g>
  <g transform="translate(1032.3071273454952 426.3893558882129) rotate(0 40.6527099609375 17.965179297652867)">
    <text x="0" y="0" font-family="Virgil, Segoe UI Emoji" font-size="28.744286876244598px" fill="#1e1e1e" text-anchor="start" style="white-space: pre;" direction="ltr" dominant-baseline="text-before-edge">Stack</text>
  </g>
  <g stroke-linecap="round" transform="translate(993.4748040404794 496.6144988734747) rotate(0 93.06976976528006 27.800061098719993)">
    <path d="M3.7 3.22 C3.7 3.22, 3.7 3.22, 3.7 3.22 M3.7 3.22 C3.7 3.22, 3.7 3.22, 3.7 3.22 M1.47 11.88 C3.1 9.19, 5.73 6.62, 9.34 2.82 M1.47 11.88 C3.76 8.84, 7.06 5.27, 9.34 2.82 M1.86 17.52 C5.04 10.42, 12.01 4.24, 15.64 1.67 M1.86 17.52 C7.11 11.29, 13.48 5.02, 15.64 1.67 M1.6 23.92 C9.2 15.47, 15.09 8.73, 21.29 1.28 M1.6 23.92 C5.43 19.2, 9.57 14.25, 21.29 1.28 M1.34 30.32 C7.65 23.42, 14.9 15.25, 26.27 1.64 M1.34 30.32 C8.46 20.65, 16.84 10.71, 26.27 1.64 M1.74 35.96 C9.26 29.69, 13.56 23.44, 31.26 2 M1.74 35.96 C7.71 27.52, 13.9 21.81, 31.26 2 M1.48 42.36 C9.29 32.82, 19.65 19.51, 36.9 1.6 M1.48 42.36 C11.45 28.85, 23.85 17.73, 36.9 1.6 M2.53 47.25 C15.25 33.8, 26.18 19.73, 41.89 1.96 M2.53 47.25 C15.72 31.83, 28.28 17.46, 41.89 1.96 M3.58 52.13 C17.53 33.48, 34.56 16.75, 47.53 1.57 M3.58 52.13 C12.77 39.98, 23.93 29.17, 47.53 1.57 M7.25 54 C22.79 34.36, 41.74 13.58, 52.52 1.93 M7.25 54 C24.41 35.5, 39.94 16.61, 52.52 1.93 M10.27 56.63 C25.13 42.3, 35.32 24.4, 58.16 1.53 M10.27 56.63 C27.77 34.99, 46.6 14.89, 58.16 1.53 M15.26 56.99 C25.33 42.93, 33.95 32.13, 63.15 1.89 M15.26 56.99 C32.74 37.11, 47.66 19.08, 63.15 1.89 M20.9 56.59 C36.38 38.05, 51.63 23.78, 68.79 1.5 M20.9 56.59 C31.74 44.57, 41.87 32.01, 68.79 1.5 M25.89 56.95 C44.27 35.94, 60.71 16.91, 73.78 1.86 M25.89 56.95 C40.58 41.29, 55.63 24.18, 73.78 1.86 M31.53 56.56 C49.05 40.19, 61.14 20.92, 78.77 2.22 M31.53 56.56 C47.57 38, 63.53 19.39, 78.77 2.22 M36.52 56.92 C56.97 34.79, 74.69 14.86, 84.41 1.83 M36.52 56.92 C51.08 40.13, 65.82 23.62, 84.41 1.83 M41.5 57.28 C55.11 38.37, 71.46 23.55, 89.4 2.19 M41.5 57.28 C56.88 39.55, 72.59 22.18, 89.4 2.19 M47.15 56.88 C63.31 39.2, 75.16 24.03, 95.04 1.79 M47.15 56.88 C56.69 45.75, 67.77 34.68, 95.04 1.79 M52.13 57.24 C64 40.71, 77.94 23.72, 100.03 2.15 M52.13 57.24 C65.65 41.35, 80.98 24.6, 100.03 2.15 M57.78 56.85 C70.8 44.23, 83.71 29.92, 105.67 1.76 M57.78 56.85 C72.26 39.3, 86.11 23.64, 105.67 1.76 M62.76 57.21 C79.5 37.93, 95.42 22, 110.66 2.12 M62.76 57.21 C80.79 37.11, 96.84 17.69, 110.66 2.12 M68.41 56.82 C81.15 40.47, 96.27 26.44, 115.64 2.48 M68.41 56.82 C82.03 42.23, 94.77 27.82, 115.64 2.48 M73.39 57.18 C94.16 35.63, 113.26 13.5, 121.29 2.08 M73.39 57.18 C91.26 35.7, 109.76 13.63, 121.29 2.08 M79.04 56.78 C95.73 36.28, 118.08 15.86, 126.27 2.44 M79.04 56.78 C91 44.41, 103.66 30.24, 126.27 2.44 M84.02 57.14 C96.2 38.64, 111.19 22.46, 131.92 2.05 M84.02 57.14 C94.03 46.65, 103.69 35.48, 131.92 2.05 M89.01 57.5 C97.72 47.25, 110.84 35.48, 136.9 2.41 M89.01 57.5 C105.39 38.94, 120.33 21.11, 136.9 2.41 M94.65 57.11 C109.08 42.13, 122.91 25.81, 142.55 2.01 M94.65 57.11 C104.03 44.8, 114.45 33.31, 142.55 2.01 M99.64 57.47 C119.62 35.8, 133.82 18.4, 147.53 2.37 M99.64 57.47 C111.18 43.98, 124.19 28.04, 147.53 2.37 M105.28 57.07 C121.26 37.57, 136.23 21.73, 153.18 1.98 M105.28 57.07 C121.88 37.68, 136.81 20.12, 153.18 1.98 M110.27 57.43 C128.02 37.04, 141.62 21.18, 158.16 2.34 M110.27 57.43 C129.06 35.56, 147.38 14.37, 158.16 2.34 M115.92 57.04 C131.94 35.03, 153 15.69, 163.15 2.7 M115.92 57.04 C131.66 37.68, 148.33 19.78, 163.15 2.7 M120.9 57.4 C136.45 39.89, 155.01 21.57, 168.79 2.3 M120.9 57.4 C135.77 40.16, 151.17 24.12, 168.79 2.3 M126.55 57 C142.99 39.06, 157.25 20.59, 173.78 2.66 M126.55 57 C139.28 41.74, 152.7 28.12, 173.78 2.66 M131.53 57.36 C146.13 41.67, 157.22 25.41, 179.42 2.27 M131.53 57.36 C148.73 38.22, 166.58 18.68, 179.42 2.27 M136.52 57.72 C147.93 45.24, 160.8 30.91, 183.1 4.14 M136.52 57.72 C147.41 45.38, 156.6 33.28, 183.1 4.14 M142.16 57.33 C150.16 46.96, 161.11 34.93, 186.12 6.76 M142.16 57.33 C157.46 38.05, 174.17 20, 186.12 6.76 M147.15 57.69 C160.09 43.37, 173.98 28.1, 187.17 11.65 M147.15 57.69 C161.12 40.25, 175.21 24.89, 187.17 11.65 M152.79 57.29 C162 48.05, 169.66 34.06, 186.91 18.05 M152.79 57.29 C162.81 44.11, 173.61 32.93, 186.91 18.05 M157.78 57.65 C163.09 51.2, 169.25 45.1, 186.65 24.45 M157.78 57.65 C166.78 46.96, 173.91 38.23, 186.65 24.45 M163.42 57.26 C169.86 49.67, 178.22 38.79, 187.04 30.09 M163.42 57.26 C169.27 51.7, 174.44 44.13, 187.04 30.09 M168.41 57.62 C172.75 54.62, 175.99 49.94, 186.78 36.49 M168.41 57.62 C175.44 50.02, 181.75 42.9, 186.78 36.49 M174.05 57.23 C177.91 53.61, 181.43 50.27, 186.52 42.89 M174.05 57.23 C177.78 52.86, 183.41 46.46, 186.52 42.89" stroke="#e9ecef" stroke-width="0.5" fill="none"/>
    <path d="M13.9 0 C70.05 0.78, 126.72 -0.17, 172.24 0 M13.9 0 C75.4 0.22, 136.45 1.13, 172.24 0 M172.24 0 C181.28 -0.8, 186.25 6.43, 186.14 13.9 M172.24 0 C180.49 -1.15, 186.58 2.56, 186.14 13.9 M186.14 13.9 C187.39 24.36, 187.62 31.55, 186.14 41.7 M186.14 13.9 C185.47 24.6, 185.87 35.09, 186.14 41.7 M186.14 41.7 C185.32 50.6, 180.37 56.22, 172.24 55.6 M186.14 41.7 C185.3 52.34, 179.35 54.98, 172.24 55.6 M172.24 55.6 C110.51 57.03, 50.9 57.56, 13.9 55.6 M172.24 55.6 C109.92 55.47, 46.6 55.6, 13.9 55.6 M13.9 55.6 C2.74 55.44, 2 50.13, 0 41.7 M13.9 55.6 C4.39 55.84, -0.83 49.64, 0 41.7 M0 41.7 C-0.83 33.88, 0.34 28.7, 0 13.9 M0 41.7 C-0.24 34.49, 0.33 28.19, 0 13.9 M0 13.9 C-0.32 4.64, 6.23 0.74, 13.9 0 M0 13.9 C-1.11 2.53, 4.39 -1.12, 13.9 0" stroke="#1e1e1e" stroke-width="1" fill="none"/>
  </g>
  <g transform="translate(1010.3726988057595 512.4145599721946) rotate(0 76.17187499999994 12)">
    <text x="76.171875" y="0" font-family="Cascadia, Segoe UI Emoji" font-size="20px" fill="#1e1e1e" text-anchor="middle" style="white-space: pre;" direction="ltr" dominant-baseline="text-before-edge">fn(3) :: null</text>
  </g>
  <g stroke-linecap="round" transform="translate(992.5965192627194 564.6320176881948) rotate(0 93.06976976528006 27.800061098719993)">
    <path d="M3.7 3.22 C3.7 3.22, 3.7 3.22, 3.7 3.22 M3.7 3.22 C3.7 3.22, 3.7 3.22, 3.7 3.22 M0.81 12.63 C5.51 6.67, 10.19 2.48, 11.31 0.56 M0.81 12.63 C3.78 9.21, 7.79 4.9, 11.31 0.56 M0.55 19.03 C3.8 13.18, 8.02 11.71, 16.95 0.16 M0.55 19.03 C5.81 13.37, 12.54 5.58, 16.95 0.16 M0.95 24.67 C5.85 17.6, 14.43 8.12, 21.94 0.52 M0.95 24.67 C7.9 16.44, 17.11 6.67, 21.94 0.52 M0.69 31.07 C4.84 24.43, 14.38 19.13, 27.58 0.13 M0.69 31.07 C8.61 23.25, 15.58 14.95, 27.58 0.13 M1.08 36.71 C13.26 23.74, 24.7 11.28, 32.57 0.49 M1.08 36.71 C9.38 28.78, 16.01 18.89, 32.57 0.49 M0.82 43.11 C11.05 33.38, 20.42 20.64, 38.21 0.09 M0.82 43.11 C12.25 29.15, 23.79 16.93, 38.21 0.09 M1.21 48.76 C11.93 39.3, 20.7 26.55, 43.2 0.45 M1.21 48.76 C10.28 36.8, 21.73 24.84, 43.2 0.45 M4.23 51.38 C16.06 39.7, 25.83 24.56, 48.19 0.81 M4.23 51.38 C13.95 40.43, 21.2 30.59, 48.19 0.81 M7.25 54 C23.54 32.69, 41.05 13.27, 53.83 0.42 M7.25 54 C20.38 38.93, 34.46 23.78, 53.83 0.42 M11.58 55.12 C30.27 34.06, 50.2 13.44, 58.82 0.78 M11.58 55.12 C30.45 34.1, 49.51 11.82, 58.82 0.78 M17.23 54.72 C30.67 38.92, 46.3 21.81, 64.46 0.39 M17.23 54.72 C33.22 34.17, 51.21 16.03, 64.46 0.39 M22.21 55.08 C38.8 36.72, 54.4 16.37, 69.45 0.75 M22.21 55.08 C32.11 44.06, 42.73 32.39, 69.45 0.75 M27.86 54.69 C40.14 39.38, 56.05 20.95, 75.09 0.35 M27.86 54.69 C41.77 37.98, 55.27 22.81, 75.09 0.35 M32.84 55.05 C42.87 41.86, 52.77 27.8, 80.08 0.71 M32.84 55.05 C49.04 36.42, 65.99 17.33, 80.08 0.71 M38.49 54.66 C52.94 39.07, 65.04 24.62, 85.72 0.32 M38.49 54.66 C48.42 43.81, 58.97 31.57, 85.72 0.32 M43.47 55.02 C55.21 41.44, 64.76 29.76, 90.71 0.68 M43.47 55.02 C58.38 36.09, 74.43 19.61, 90.71 0.68 M48.46 55.38 C66.39 36.09, 84.78 14.21, 95.7 1.04 M48.46 55.38 C59.37 42.52, 72.3 29.24, 95.7 1.04 M54.1 54.98 C73.67 34.12, 91.1 12.06, 101.34 0.64 M54.1 54.98 C67.32 39.23, 81.29 23.5, 101.34 0.64 M59.09 55.34 C73.07 34.78, 91.2 18.61, 106.33 1 M59.09 55.34 C70.93 41.74, 83.22 27.78, 106.33 1 M64.73 54.95 C73.19 43.02, 83.71 30.42, 111.97 0.61 M64.73 54.95 C81.77 35.56, 100.87 13.97, 111.97 0.61 M69.72 55.31 C85.19 37.53, 98.06 19.98, 116.96 0.97 M69.72 55.31 C83.67 37.7, 97.38 22.75, 116.96 0.97 M75.36 54.91 C90.51 39.37, 105.17 20.51, 122.6 0.57 M75.36 54.91 C90.81 38.37, 105.45 19.97, 122.6 0.57 M80.35 55.27 C96.21 39.88, 106.92 23.99, 127.59 0.93 M80.35 55.27 C97.47 34.97, 113.08 17.42, 127.59 0.93 M85.99 54.88 C101.31 37.75, 112.19 24.56, 133.23 0.54 M85.99 54.88 C102.08 36.89, 117.07 19.8, 133.23 0.54 M90.98 55.24 C101.94 42.64, 113.02 30.59, 138.22 0.9 M90.98 55.24 C108.98 34.38, 127.36 13.18, 138.22 0.9 M95.97 55.6 C107.16 41.27, 119.9 25.76, 143.2 1.26 M95.97 55.6 C110.98 39.57, 125.79 22.5, 143.2 1.26 M101.61 55.2 C119.09 34.81, 137.97 16.51, 148.85 0.86 M101.61 55.2 C116.45 37.87, 130.18 21.93, 148.85 0.86 M106.6 55.56 C117.42 45.51, 128.17 31.47, 153.83 1.22 M106.6 55.56 C121.96 38.51, 137.1 19.95, 153.83 1.22 M112.24 55.17 C124.24 39.47, 138.19 26.16, 159.48 0.83 M112.24 55.17 C132.12 32.94, 150.4 11.26, 159.48 0.83 M117.23 55.53 C136.58 35.14, 151.09 13.51, 164.46 1.19 M117.23 55.53 C131.79 37.58, 146.44 20.39, 164.46 1.19 M122.87 55.13 C133.74 41.93, 142.28 33.07, 170.11 0.79 M122.87 55.13 C137.13 39.66, 150.72 23.28, 170.11 0.79 M127.86 55.49 C139.24 44.27, 149.5 29.43, 175.09 1.15 M127.86 55.49 C142.4 37.79, 158.79 20.41, 175.09 1.15 M133.5 55.1 C142.42 43.23, 154.85 34.65, 179.42 2.27 M133.5 55.1 C143.8 44.25, 153.1 31.88, 179.42 2.27 M138.49 55.46 C154.03 39.39, 170.24 22.06, 183.1 4.14 M138.49 55.46 C153.09 37.74, 169.3 19.89, 183.1 4.14 M143.47 55.82 C159.28 39.8, 170.11 23.93, 185.46 7.52 M143.47 55.82 C155.78 41.32, 169.7 27.17, 185.46 7.52 M149.12 55.43 C163.55 38.16, 177.38 24.45, 186.51 12.41 M149.12 55.43 C157.29 45.06, 165.44 36.15, 186.51 12.41 M154.1 55.79 C162.61 46.75, 169.83 41.17, 186.25 18.8 M154.1 55.79 C162.89 44.73, 174.1 34, 186.25 18.8 M159.75 55.39 C169.59 45.93, 176.31 36.02, 185.99 25.2 M159.75 55.39 C169.54 43.38, 181.15 32.05, 185.99 25.2 M164.73 55.75 C168.17 52.14, 172.54 47.74, 185.73 31.6 M164.73 55.75 C170.23 50.69, 176.07 44.05, 185.73 31.6 M170.38 55.36 C174.3 52.23, 180.31 45.06, 186.12 37.24 M170.38 55.36 C174.89 48.35, 181.2 42.74, 186.12 37.24 M176.02 54.96 C178.22 51.11, 183.46 46.07, 185.86 43.64 M176.02 54.96 C177.94 52.01, 180.93 49.28, 185.86 43.64" stroke="#e9ecef" stroke-width="0.5" fill="none"/>
    <path d="M13.9 0 C76.16 0.58, 138.23 -0.56, 172.24 0 M13.9 0 C49.87 -0.2, 85.06 -0.2, 172.24 0 M172.24 0 C180.76 0.63, 188.02 5.76, 186.14 13.9 M172.24 0 C180.89 2, 188.02 4.48, 186.14 13.9 M186.14 13.9 C184.75 20.97, 184.81 28.81, 186.14 41.7 M186.14 13.9 C185.81 21.42, 186.72 30.53, 186.14 41.7 M186.14 41.7 C186.62 51.67, 183.47 56.35, 172.24 55.6 M186.14 41.7 C187.34 53.15, 182.24 57.82, 172.24 55.6 M172.24 55.6 C120.26 54.66, 69.62 54.31, 13.9 55.6 M172.24 55.6 C136.55 54.43, 102.88 56.36, 13.9 55.6 M13.9 55.6 C5.84 54.53, -1.22 50.33, 0 41.7 M13.9 55.6 C4.58 57.64, 2.27 51.23, 0 41.7 M0 41.7 C-2.11 31.71, -1.65 23.81, 0 13.9 M0 41.7 C0.6 37.12, 0.67 31.41, 0 13.9 M0 13.9 C-1.72 4.08, 3.04 -1.69, 13.9 0 M0 13.9 C1.32 6.01, 5.97 0.51, 13.9 0" stroke="#1e1e1e" stroke-width="1" fill="none"/>
  </g>
  <g transform="translate(1009.4944140279995 580.4320787869146) rotate(0 76.17187500000006 12)">
    <text x="76.171875" y="0" font-family="Cascadia, Segoe UI Emoji" font-size="20px" fill="#1e1e1e" text-anchor="middle" style="white-space: pre;" direction="ltr" dominant-baseline="text-before-edge">fn(2) :: null</text>
  </g>
  <g stroke-linecap="round" transform="translate(992.9269327935993 631.4408381942746) rotate(0 93.06976976528006 27.800061098719993)">
    <path d="M3.7 3.22 C3.7 3.22, 3.7 3.22, 3.7 3.22 M3.7 3.22 C3.7 3.22, 3.7 3.22, 3.7 3.22 M1.47 11.88 C2.89 9.45, 6.78 7.33, 9.34 2.82 M1.47 11.88 C3.8 9.01, 5.57 6.63, 9.34 2.82 M1.86 17.52 C6.82 13.53, 10.29 9.58, 15.64 1.67 M1.86 17.52 C7.36 11.94, 11.36 5.79, 15.64 1.67 M1.6 23.92 C4.93 17.56, 10.96 12.06, 21.29 1.28 M1.6 23.92 C7.52 15.92, 13 10.18, 21.29 1.28 M1.34 30.32 C10.21 22.13, 17.69 11.78, 26.27 1.64 M1.34 30.32 C10.64 19.4, 20.49 7.9, 26.27 1.64 M1.74 35.96 C12.35 26.64, 20.01 13.19, 31.26 2 M1.74 35.96 C7.22 28.36, 13.75 22.4, 31.26 2 M1.48 42.36 C12.46 27.11, 28.59 15.49, 36.9 1.6 M1.48 42.36 C9.65 33.81, 16.52 24.75, 36.9 1.6 M2.53 47.25 C19.18 31.1, 35.2 13.7, 41.89 1.96 M2.53 47.25 C17.31 30.6, 31.35 13.12, 41.89 1.96 M3.58 52.13 C13.55 39.85, 23.5 30.96, 47.53 1.57 M3.58 52.13 C19.91 32.42, 38.68 12.07, 47.53 1.57 M7.25 54 C25.37 34.06, 42.94 13.4, 52.52 1.93 M7.25 54 C23.9 34.25, 40.41 16.64, 52.52 1.93 M10.27 56.63 C27.22 40.79, 40.13 22.61, 58.16 1.53 M10.27 56.63 C24.74 39.07, 39.02 23.61, 58.16 1.53 M15.26 56.99 C30.09 35.87, 50.2 18.67, 63.15 1.89 M15.26 56.99 C33.27 37.48, 49.45 17.03, 63.15 1.89 M20.9 56.59 C33.6 42.32, 42.95 31.33, 68.79 1.5 M20.9 56.59 C33.1 41.45, 45.3 29.04, 68.79 1.5 M25.89 56.95 C36.18 40.88, 51.79 28.49, 73.78 1.86 M25.89 56.95 C35.86 43.49, 47.89 32.21, 73.78 1.86 M31.53 56.56 C43.37 42.49, 57.11 24.63, 78.77 2.22 M31.53 56.56 C43.42 42.95, 55.49 30.91, 78.77 2.22 M36.52 56.92 C46.88 44.57, 56.36 34.28, 84.41 1.83 M36.52 56.92 C48.1 43.34, 59.06 31.06, 84.41 1.83 M41.5 57.28 C62.16 36.39, 81.08 15.42, 89.4 2.19 M41.5 57.28 C52.73 44.98, 64.86 31.55, 89.4 2.19 M47.15 56.88 C62.56 37.36, 80.79 14.97, 95.04 1.79 M47.15 56.88 C58.28 45.52, 67.24 34.38, 95.04 1.79 M52.13 57.24 C63.16 44.88, 71.1 34.46, 100.03 2.15 M52.13 57.24 C63.29 44.39, 75.38 32.93, 100.03 2.15 M57.78 56.85 C69.92 42.24, 82.81 28.08, 105.67 1.76 M57.78 56.85 C73.69 37.53, 88.89 19.91, 105.67 1.76 M62.76 57.21 C79.37 35.87, 97.48 13.81, 110.66 2.12 M62.76 57.21 C72.62 44.36, 84.54 33.3, 110.66 2.12 M68.41 56.82 C84.55 39.17, 99.22 19.78, 115.64 2.48 M68.41 56.82 C84.87 38.41, 99.59 20.57, 115.64 2.48 M73.39 57.18 C87.07 42.42, 101.1 24.75, 121.29 2.08 M73.39 57.18 C83.88 46.09, 95.73 32.23, 121.29 2.08 M79.04 56.78 C93.75 40.08, 105.74 25.45, 126.27 2.44 M79.04 56.78 C96.05 38.67, 112.42 19.88, 126.27 2.44 M84.02 57.14 C98.46 41.3, 112.3 25.39, 131.92 2.05 M84.02 57.14 C95.71 42.6, 107.45 29.79, 131.92 2.05 M89.01 57.5 C98.92 47.85, 109.32 36.5, 136.9 2.41 M89.01 57.5 C106.78 36.23, 126.64 12.68, 136.9 2.41 M94.65 57.11 C109.09 37.95, 126.48 20.3, 142.55 2.01 M94.65 57.11 C111 38.49, 128.88 18.74, 142.55 2.01 M99.64 57.47 C111.06 46.22, 123.06 31.45, 147.53 2.37 M99.64 57.47 C116.62 37.49, 133.46 19.71, 147.53 2.37 M105.28 57.07 C118.14 43.48, 132.36 25.94, 153.18 1.98 M105.28 57.07 C122.54 38.15, 139.12 19.33, 153.18 1.98 M110.27 57.43 C125.91 43.19, 138.28 26.01, 158.16 2.34 M110.27 57.43 C128.3 38.52, 144.32 17.99, 158.16 2.34 M115.92 57.04 C130.6 38.98, 148.28 18.71, 163.15 2.7 M115.92 57.04 C130.53 40.91, 144.5 23.1, 163.15 2.7 M120.9 57.4 C136.32 39.87, 152.07 23.13, 168.79 2.3 M120.9 57.4 C130.79 47.17, 139.59 34.51, 168.79 2.3 M126.55 57 C139.12 44.34, 149.96 32.19, 173.78 2.66 M126.55 57 C141.67 41.07, 156.09 24.48, 173.78 2.66 M131.53 57.36 C142.15 45.18, 155.02 28.11, 179.42 2.27 M131.53 57.36 C148.91 36.4, 167 16.69, 179.42 2.27 M136.52 57.72 C148.52 42.13, 163.34 27.61, 183.1 4.14 M136.52 57.72 C145.38 45.24, 155.81 35.22, 183.1 4.14 M142.16 57.33 C156.57 41.11, 172.17 23.72, 186.12 6.76 M142.16 57.33 C157.19 39.89, 172.8 23.2, 186.12 6.76 M147.15 57.69 C161.44 37.46, 176.98 19.02, 187.17 11.65 M147.15 57.69 C157.63 44.21, 171.32 29.69, 187.17 11.65 M152.79 57.29 C163.61 48.49, 172.32 38.26, 186.91 18.05 M152.79 57.29 C164.62 43.86, 176.09 31.63, 186.91 18.05 M157.78 57.65 C167.29 45.81, 178.21 36.14, 186.65 24.45 M157.78 57.65 C165.99 47.39, 174.3 37.93, 186.65 24.45 M163.42 57.26 C170.51 50.35, 178.29 39.64, 187.04 30.09 M163.42 57.26 C171.51 48.29, 179.23 38.51, 187.04 30.09 M168.41 57.62 C173.65 52.26, 180.03 42.8, 186.78 36.49 M168.41 57.62 C173.32 52.18, 179.39 45.55, 186.78 36.49 M174.05 57.23 C176.79 52.78, 182.23 48.57, 186.52 42.89 M174.05 57.23 C179.09 52.76, 183.19 46.91, 186.52 42.89" stroke="#e9ecef" stroke-width="0.5" fill="none"/>
    <path d="M13.9 0 C47.98 -2.07, 77.18 -2.58, 172.24 0 M13.9 0 C70.06 -0.02, 125.82 -1.25, 172.24 0 M172.24 0 C182.23 -0.1, 186.95 5.14, 186.14 13.9 M172.24 0 C179.99 -0.72, 187.21 6.52, 186.14 13.9 M186.14 13.9 C185.24 23.51, 185.25 34.98, 186.14 41.7 M186.14 13.9 C186.34 24.09, 186.08 33.31, 186.14 41.7 M186.14 41.7 C185.03 50.49, 182.88 54.32, 172.24 55.6 M186.14 41.7 C186.25 49.71, 182.46 57.57, 172.24 55.6 M172.24 55.6 C128.13 54.39, 80.41 53.83, 13.9 55.6 M172.24 55.6 C114.81 55.38, 58.47 55.66, 13.9 55.6 M13.9 55.6 C3.45 54.93, -1.96 50.98, 0 41.7 M13.9 55.6 C4.58 57.54, -1.7 49.13, 0 41.7 M0 41.7 C-0.56 33.12, -1.17 25.54, 0 13.9 M0 41.7 C0.51 32.86, 0.17 25.46, 0 13.9 M0 13.9 C-0.1 6.57, 2.94 -0.62, 13.9 0 M0 13.9 C-0.59 5.03, 5.42 1.48, 13.9 0" stroke="#1e1e1e" stroke-width="1" fill="none"/>
  </g>
  <g transform="translate(1009.8248275588794 647.2408992929948) rotate(0 76.17187500000006 12)">
    <text x="76.171875" y="0" font-family="Cascadia, Segoe UI Emoji" font-size="20px" fill="#1e1e1e" text-anchor="middle" style="white-space: pre;" direction="ltr" dominant-baseline="text-before-edge">fn(1) :: null</text>
  </g>
  <g stroke-linecap="round" transform="translate(993.2573463244793 699.4583570089947) rotate(0 93.06976976528006 27.800061098719993)">
    <path d="M3.7 3.22 C3.7 3.22, 3.7 3.22, 3.7 3.22 M3.7 3.22 C3.7 3.22, 3.7 3.22, 3.7 3.22 M0.81 12.63 C4.46 8.34, 6.23 5.59, 11.31 0.56 M0.81 12.63 C2.27 9.93, 5.06 7.31, 11.31 0.56 M0.55 19.03 C4.77 13.26, 13.86 3.82, 16.95 0.16 M0.55 19.03 C5.21 13.5, 11.71 5.44, 16.95 0.16 M0.95 24.67 C6.04 18.27, 15.11 8.38, 21.94 0.52 M0.95 24.67 C7.24 17.76, 11.63 11.05, 21.94 0.52 M0.69 31.07 C7.14 23.94, 16.95 12.52, 27.58 0.13 M0.69 31.07 C9.67 20.36, 19.63 8.46, 27.58 0.13 M1.08 36.71 C9.03 25.18, 20.08 17.37, 32.57 0.49 M1.08 36.71 C8.01 29.64, 14.96 20.42, 32.57 0.49 M0.82 43.11 C11.35 33.67, 19.72 22.83, 38.21 0.09 M0.82 43.11 C11.98 30.15, 21.89 16.96, 38.21 0.09 M1.21 48.76 C11.46 36.52, 22.23 22.92, 43.2 0.45 M1.21 48.76 C14.13 32.85, 27.9 17.14, 43.2 0.45 M4.23 51.38 C13.35 41.58, 25.61 29.11, 48.19 0.81 M4.23 51.38 C21.39 31.42, 39.01 12.06, 48.19 0.81 M7.25 54 C18.26 37.81, 32.23 26.68, 53.83 0.42 M7.25 54 C20.95 37.53, 34.3 21.45, 53.83 0.42 M11.58 55.12 C22.25 42.75, 36.49 27.19, 58.82 0.78 M11.58 55.12 C21.77 42.98, 31.23 31.72, 58.82 0.78 M17.23 54.72 C31.93 36.4, 47.65 19.39, 64.46 0.39 M17.23 54.72 C35.8 34.54, 52.65 12.56, 64.46 0.39 M22.21 55.08 C34.27 45.09, 41.02 32.05, 69.45 0.75 M22.21 55.08 C31.8 42.65, 42.53 32.35, 69.45 0.75 M27.86 54.69 C43.08 40.06, 56.88 21.76, 75.09 0.35 M27.86 54.69 C46.77 33.49, 65.42 11.57, 75.09 0.35 M32.84 55.05 C44.89 39.1, 60.04 21.33, 80.08 0.71 M32.84 55.05 C51.66 35.03, 69.4 14.95, 80.08 0.71 M38.49 54.66 C58.28 34.13, 73.22 13.43, 85.72 0.32 M38.49 54.66 C50.86 40.41, 63.88 25.5, 85.72 0.32 M43.47 55.02 C56.18 43.66, 66.32 27.26, 90.71 0.68 M43.47 55.02 C62.46 34.9, 79.43 15.07, 90.71 0.68 M48.46 55.38 C62.36 38.75, 80.43 19.69, 95.7 1.04 M48.46 55.38 C67.61 35.1, 84.56 13.52, 95.7 1.04 M54.1 54.98 C64.72 43.67, 75.69 28.63, 101.34 0.64 M54.1 54.98 C65.02 43.03, 74.5 31.16, 101.34 0.64 M59.09 55.34 C75.36 37.53, 88.4 23.09, 106.33 1 M59.09 55.34 C78.7 33.67, 97.05 13.07, 106.33 1 M64.73 54.95 C81.67 35.54, 95.52 19.38, 111.97 0.61 M64.73 54.95 C74.69 43.93, 84.81 31.73, 111.97 0.61 M69.72 55.31 C86.09 36.98, 97.69 20.92, 116.96 0.97 M69.72 55.31 C87.66 35.19, 105.73 14.72, 116.96 0.97 M75.36 54.91 C86.18 44.28, 95.94 30, 122.6 0.57 M75.36 54.91 C93.81 34.83, 109.77 15.47, 122.6 0.57 M80.35 55.27 C95.49 37.65, 112.95 16, 127.59 0.93 M80.35 55.27 C94.29 39.85, 108.53 21.49, 127.59 0.93 M85.99 54.88 C97.79 38.87, 114.16 23.21, 133.23 0.54 M85.99 54.88 C96.54 43.22, 106.69 31.18, 133.23 0.54 M90.98 55.24 C101.4 43.53, 113.64 30.43, 138.22 0.9 M90.98 55.24 C108.58 33.42, 127.03 13.02, 138.22 0.9 M95.97 55.6 C114.98 36.54, 131.7 12.77, 143.2 1.26 M95.97 55.6 C107.35 43.68, 118.01 30.99, 143.2 1.26 M101.61 55.2 C111.68 43.67, 124.12 29.15, 148.85 0.86 M101.61 55.2 C117.39 37.47, 134.09 17.85, 148.85 0.86 M106.6 55.56 C115.73 42.78, 126.49 32.37, 153.83 1.22 M106.6 55.56 C122.16 38.81, 135.7 22.85, 153.83 1.22 M112.24 55.17 C130.35 34.56, 146.8 16.36, 159.48 0.83 M112.24 55.17 C126.14 39.97, 138.04 25.03, 159.48 0.83 M117.23 55.53 C133.44 39.55, 147.35 18.97, 164.46 1.19 M117.23 55.53 C133.7 37.32, 150.18 17.44, 164.46 1.19 M122.87 55.13 C137.66 40.3, 149.43 21.12, 170.11 0.79 M122.87 55.13 C134.04 43.17, 144.28 31.29, 170.11 0.79 M127.86 55.49 C144.39 36.19, 165.14 16.02, 175.09 1.15 M127.86 55.49 C143.35 37.75, 158.92 20.48, 175.09 1.15 M133.5 55.1 C148.16 38.34, 161.33 22.66, 179.42 2.27 M133.5 55.1 C143.66 42.75, 155.29 31.03, 179.42 2.27 M138.49 55.46 C147.2 45.52, 159.52 30.54, 183.1 4.14 M138.49 55.46 C151.76 39.52, 166.93 23.24, 183.1 4.14 M143.47 55.82 C156.43 42.39, 165.04 29.59, 185.46 7.52 M143.47 55.82 C152.62 44.48, 163.83 32.14, 185.46 7.52 M149.12 55.43 C159.27 43.93, 169.91 32.56, 186.51 12.41 M149.12 55.43 C160.56 41.99, 171.51 30.52, 186.51 12.41 M154.1 55.79 C163.17 43.09, 176.66 31.07, 186.25 18.8 M154.1 55.79 C161.91 47.25, 169.85 37.76, 186.25 18.8 M159.75 55.39 C168.98 46.53, 176.63 36.97, 185.99 25.2 M159.75 55.39 C169.68 42.84, 181.55 31.37, 185.99 25.2 M164.73 55.75 C170.78 48.12, 179.11 36.81, 185.73 31.6 M164.73 55.75 C169.8 49.66, 175.86 42.64, 185.73 31.6 M170.38 55.36 C175.45 49.94, 177.58 43.88, 186.12 37.24 M170.38 55.36 C173.41 50.8, 176.75 47.31, 186.12 37.24 M176.02 54.96 C179.19 51.95, 182.76 48.85, 185.86 43.64 M176.02 54.96 C178.72 52.18, 180.37 50.31, 185.86 43.64" stroke="#e9ecef" stroke-width="0.5" fill="none"/>
    <path d="M13.9 0 C70.03 0.94, 126.12 0.79, 172.24 0 M13.9 0 C59.45 -0.65, 107.04 -0.71, 172.24 0 M172.24 0 C182.9 1.41, 185.89 3.29, 186.14 13.9 M172.24 0 C179.31 2.1, 186.4 4.07, 186.14 13.9 M186.14 13.9 C187.25 19.62, 184.78 25.47, 186.14 41.7 M186.14 13.9 C185.52 20.57, 186.16 28.08, 186.14 41.7 M186.14 41.7 C186.06 51.08, 180.51 57.42, 172.24 55.6 M186.14 41.7 C185.12 50, 182.73 57.19, 172.24 55.6 M172.24 55.6 C109.9 58.56, 49.97 57.85, 13.9 55.6 M172.24 55.6 C136.82 53.43, 101.24 53.66, 13.9 55.6 M13.9 55.6 C5.04 56.54, 1.93 52.81, 0 41.7 M13.9 55.6 C2.45 54.15, -0.19 52.62, 0 41.7 M0 41.7 C-0.46 35.32, -0.64 28.59, 0 13.9 M0 41.7 C-1.05 35.77, -1.08 29.33, 0 13.9 M0 13.9 C1.54 4.94, 2.79 -1.38, 13.9 0 M0 13.9 C1.54 6.03, 3.63 0.48, 13.9 0" stroke="#1e1e1e" stroke-width="1" fill="none"/>
  </g>
  <g transform="translate(1010.1552410897593 715.2584181077146) rotate(0 76.17187500000006 12)">
    <text x="76.171875" y="0" font-family="Cascadia, Segoe UI Emoji" font-size="20px" fill="#1e1e1e" text-anchor="middle" style="white-space: pre;" direction="ltr" dominant-baseline="text-before-edge">fn(0) :: null</text>
  </g>
  <g stroke-linecap="round">
    <g transform="translate(985.6610449337733 520.3538498944547) rotate(0 -45.960704223045695 31.75428895821723)">
      <path d="M-0.62 -0.66 C-16.09 6.08, -92.7 29.37, -92.46 40.17 C-92.23 50.98, -14.77 60.17, 0.79 64.17 M1.25 1.61 C-14.36 8, -92.99 28.16, -93.17 38.28 C-93.36 48.39, -15.6 58.33, 0.15 62.3" stroke="#f08c00" stroke-width="1" fill="none"/>
    </g>
    <g transform="translate(985.6610449337733 520.3538498944547) rotate(0 -45.960704223045695 31.75428895821723)">
      <path d="M-29.44 67.26 C-20.82 66.54, -9.3 64.55, 0.15 62.3 M-29.44 67.26 C-18.42 64.19, -8.18 63.83, 0.15 62.3" stroke="#f08c00" stroke-width="1" fill="none"/>
    </g>
    <g transform="translate(985.6610449337733 520.3538498944547) rotate(0 -45.960704223045695 31.75428895821723)">
      <path d="M-25.7 47.08 C-18.34 52.97, -8.05 57.59, 0.15 62.3 M-25.7 47.08 C-16.03 51.63, -7.19 58.85, 0.15 62.3" stroke="#f08c00" stroke-width="1" fill="none"/>
    </g>
  </g>
  <mask/>
  <g stroke-linecap="round">
    <g transform="translate(985.5853530538444 606.4812996539167) rotate(0 -46.11551128969427 31.149430206100647)">
      <path d="M-0.03 -0.18 C-15.51 6.42, -93.78 29, -93.56 39.64 C-93.33 50.27, -14.18 59.49, 1.33 63.62 M-1.5 -1.32 C-16.53 5.48, -91.59 30.66, -91.18 41.12 C-90.77 51.58, -14.1 57.9, 0.96 61.47" stroke="#f08c00" stroke-width="1" fill="none"/>
    </g>
    <g transform="translate(985.5853530538444 606.4812996539167) rotate(0 -46.11551128969427 31.149430206100647)">
      <path d="M-28.44 67.41 C-21.54 64.9, -14.21 65.78, 0.96 61.47 M-28.44 67.41 C-18.51 65.69, -8.55 63.15, 0.96 61.47" stroke="#f08c00" stroke-width="1" fill="none"/>
    </g>
    <g transform="translate(985.5853530538444 606.4812996539167) rotate(0 -46.11551128969427 31.149430206100647)">
      <path d="M-25.38 47.12 C-19.23 49.58, -12.65 55.43, 0.96 61.47 M-25.38 47.12 C-16.64 52.13, -7.7 56.29, 0.96 61.47" stroke="#f08c00" stroke-width="1" fill="none"/>
    </g>
  </g>
  <mask/>
  <g stroke-linecap="round">
    <g transform="translate(986.0694218339116 677.4952115934857) rotate(0 -46.631944977811315 32.27322176191882)">
      <path d="M0.39 1.13 C-15.31 8.03, -93.64 30.33, -93.66 40.61 C-93.67 50.89, -15.42 59.2, 0.3 62.79 M-0.86 0.68 C-16.22 7.31, -91.38 28.41, -91.33 38.94 C-91.29 49.47, -15.99 59.91, -0.59 63.86" stroke="#f08c00" stroke-width="1" fill="none"/>
    </g>
    <g transform="translate(986.0694218339116 677.4952115934857) rotate(0 -46.631944977811315 32.27322176191882)">
      <path d="M-30.23 68.55 C-18.04 65.6, -8.22 64.78, -0.59 63.86 M-30.23 68.55 C-23.27 67.41, -13.85 65.9, -0.59 63.86" stroke="#f08c00" stroke-width="1" fill="none"/>
    </g>
    <g transform="translate(986.0694218339116 677.4952115934857) rotate(0 -46.631944977811315 32.27322176191882)">
      <path d="M-26.3 48.41 C-15.61 52.45, -7.14 58.61, -0.59 63.86 M-26.3 48.41 C-20.35 52.5, -11.95 56.25, -0.59 63.86" stroke="#f08c00" stroke-width="1" fill="none"/>
    </g>
  </g>
  <mask/>
  <g stroke-linecap="round">
    <g transform="translate(1184.796964092135 747.2079456253362) rotate(0 39.895047936618084 -37.85197455739626)">
      <path d="M-0.16 -0.91 C13.52 -7.36, 81.43 -26.02, 81.5 -38.36 C81.57 -50.7, 14 -68.66, 0.28 -74.97 M-1.71 1.23 C11.9 -5.03, 80.49 -23.71, 80.72 -36.74 C80.94 -49.76, 13.29 -70.49, -0.34 -76.93" stroke="#1971c2" stroke-width="1" fill="none"/>
    </g>
    <g transform="translate(1184.796964092135 747.2079456253362) rotate(0 39.895047936618084 -37.85197455739626)">
      <path d="M29.66 -76.39 C20.68 -76.05, 15.02 -76.23, -0.34 -76.93 M29.66 -76.39 C19.46 -77.66, 7.78 -77.89, -0.34 -76.93" stroke="#1971c2" stroke-width="1" fill="none"/>
    </g>
    <g transform="translate(1184.796964092135 747.2079456253362) rotate(0 39.895047936618084 -37.85197455739626)">
      <path d="M22.29 -57.23 C15.09 -61.65, 11.26 -66.6, -0.34 -76.93 M22.29 -57.23 C14.88 -65.37, 5.85 -72.5, -0.34 -76.93" stroke="#1971c2" stroke-width="1" fill="none"/>
    </g>
  </g>
  <mask/>
  <g stroke-linecap="round">
    <g transform="translate(1187.9164578601367 659.5047571309614) rotate(0 40.716316162858675 -38.56509890010602)">
      <path d="M-0.68 -0.46 C12.82 -6.89, 79.71 -25.65, 80.02 -38.35 C80.33 -51.05, 14.6 -70.57, 1.18 -76.67 M1.17 -1.74 C15.09 -7.97, 82.13 -24.36, 82.11 -36.71 C82.09 -49.07, 14.81 -69.14, 1.03 -75.87" stroke="#1971c2" stroke-width="1" fill="none"/>
    </g>
    <g transform="translate(1187.9164578601367 659.5047571309614) rotate(0 40.716316162858675 -38.56509890010602)">
      <path d="M31.03 -75.31 C23.66 -77.56, 18.12 -73.76, 1.03 -75.87 M31.03 -75.31 C25.45 -75.49, 16.98 -74.45, 1.03 -75.87" stroke="#1971c2" stroke-width="1" fill="none"/>
    </g>
    <g transform="translate(1187.9164578601367 659.5047571309614) rotate(0 40.716316162858675 -38.56509890010602)">
      <path d="M23.65 -56.16 C17.87 -62.58, 13.96 -63, 1.03 -75.87 M23.65 -56.16 C19.76 -60.56, 12.9 -63.69, 1.03 -75.87" stroke="#1971c2" stroke-width="1" fill="none"/>
    </g>
  </g>
  <mask/>
  <g stroke-linecap="round">
    <g transform="translate(1188.9717997585394 579.3701254917846) rotate(0 40.857015378959204 -37.55797877176687)">
      <path d="M0.87 -0.77 C14.33 -7.18, 81.82 -25.74, 81.85 -38.37 C81.88 -51, 14.9 -70.3, 1.07 -76.55 M-0.14 1.44 C13.13 -4.76, 81.08 -23.9, 81.25 -36.75 C81.41 -49.61, 14.65 -69.33, 0.87 -75.69" stroke="#1971c2" stroke-width="1" fill="none"/>
    </g>
    <g transform="translate(1188.9717997585394 579.3701254917846) rotate(0 40.857015378959204 -37.55797877176687)">
      <path d="M30.86 -75.42 C17.87 -74.21, 7.72 -73.63, 0.87 -75.69 M30.86 -75.42 C23.09 -75.87, 17.32 -76.26, 0.87 -75.69" stroke="#1971c2" stroke-width="1" fill="none"/>
    </g>
    <g transform="translate(1188.9717997585394 579.3701254917846) rotate(0 40.857015378959204 -37.55797877176687)">
      <path d="M23.67 -56.2 C13.47 -62.54, 6.12 -69.47, 0.87 -75.69 M23.67 -56.2 C17.71 -61.01, 13.57 -65.77, 0.87 -75.69" stroke="#1971c2" stroke-width="1" fill="none"/>
    </g>
  </g>
  <mask/>
  <g transform="translate(1282.098547449582 693.7852214199502) rotate(0 23.4375 12)">
    <text x="0" y="0" font-family="Cascadia, Segoe UI Emoji" font-size="20px" fill="#1971c2" text-anchor="start" style="white-space: pre;" direction="ltr" dominant-baseline="text-before-edge">call</text>
  </g>
  <g transform="translate(1278.891199099989 606.9313335229358) rotate(0 23.4375 12)">
    <text x="0" y="0" font-family="Cascadia, Segoe UI Emoji" font-size="20px" fill="#1971c2" text-anchor="start" style="white-space: pre;" direction="ltr" dominant-baseline="text-before-edge">call</text>
  </g>
  <g transform="translate(1276.7844631128623 526.6811198007179) rotate(0 23.4375 12)">
    <text x="0" y="0" font-family="Cascadia, Segoe UI Emoji" font-size="20px" fill="#1971c2" text-anchor="start" style="white-space: pre;" direction="ltr" dominant-baseline="text-before-edge">call</text>
  </g>
  <g transform="translate(814.6217596149174 548.7878557878446) rotate(0 35.15625 12)">
    <text x="0" y="0" font-family="Cascadia, Segoe UI Emoji" font-size="20px" fill="#f08c00" text-anchor="start" style="white-space: pre;" direction="ltr" dominant-baseline="text-before-edge">return</text>
  </g>
  <g transform="translate(812.5150236277906 635.8307211604697) rotate(0 35.15625 12)">
    <text x="0" y="0" font-family="Cascadia, Segoe UI Emoji" font-size="20px" fill="#f08c00" text-anchor="start" style="white-space: pre;" direction="ltr" dominant-baseline="text-before-edge">return</text>
  </g>
  <g transform="translate(813.710124728062 707.4650134585697) rotate(0 35.15625 12)">
    <text x="0" y="0" font-family="Cascadia, Segoe UI Emoji" font-size="20px" fill="#f08c00" text-anchor="start" style="white-space: pre;" direction="ltr" dominant-baseline="text-before-edge">return</text>
  </g>
  <g stroke-linecap="round">
    <g transform="translate(286.3387752762252 43.37039162758211) rotate(0 -23.836454459356005 57.98900891094593)">
      <path d="M-0.38 -0.46 C-8.24 18.97, -39.51 96.92, -47.29 116.44" stroke="#2f9e44" stroke-width="1.5" fill="none" stroke-dasharray="1.5 7"/>
    </g>
    <g transform="translate(286.3387752762252 43.37039162758211) rotate(0 -23.836454459356005 57.98900891094593)">
      <path d="M-48.06 116.43 L-48.31 101.72 L-36.31 105.96 L-47.34 115.82" stroke="none" stroke-width="0" fill="#2f9e44" fill-rule="evenodd"/>
      <path d="M-47.29 116.44 C-48.14 112.36, -47.9 108.55, -48.13 101.46 M-48.13 101.46 C-44.4 103.14, -40.47 104.13, -36.36 106.17 M-36.36 106.17 C-39.11 109.21, -41.42 111.61, -47.29 116.44 M-47.29 116.44 C-47.29 116.44, -47.29 116.44, -47.29 116.44" stroke="#2f9e44" stroke-width="1.5" fill="none"/>
    </g>
  </g>
  <mask/>
  <g transform="translate(257.53966415324936 10) rotate(0 82.03125 12)">
    <text x="0" y="0" font-family="Cascadia, Segoe UI Emoji" font-size="20px" fill="#2f9e44" text-anchor="start" style="white-space: pre;" direction="ltr" dominant-baseline="text-before-edge">base condition</text>
  </g>
  <g transform="translate(960.6322624796011 801.8422603071649) rotate(0 130.142578125 19.043623966731275)">
    <text x="0" y="0" font-family="Cascadia, Segoe UI Emoji" font-size="31.739373277885466px" fill="#2f9e44" text-anchor="start" style="white-space: pre;" direction="ltr" dominant-baseline="text-before-edge">recursion tree</text>
  </g>
  <g transform="translate(10 325.70547920481124) rotate(0 111.328125 12)">
    <text x="0" y="0" font-family="Cascadia, Segoe UI Emoji" font-size="20px" fill="#2f9e44" text-anchor="start" style="white-space: pre;" direction="ltr" dominant-baseline="text-before-edge">recursive condition</text>
  </g>
  <g stroke-linecap="round">
    <g transform="translate(39.12938479981898 326.607324795719) rotate(0 86.66566877394864 -57.20079178606413)">
      <path d="M-0.77 -0.77 C28.26 -19.72, 144.78 -94.81, 174.11 -113.64" stroke="#2f9e44" stroke-width="1.5" fill="none" stroke-dasharray="1.5 7"/>
    </g>
    <g transform="translate(39.12938479981898 326.607324795719) rotate(0 86.66566877394864 -57.20079178606413)">
      <path d="M172.19 -115.33 L167.3 -98.97 L161.13 -110.99 L173.34 -112.43" stroke="none" stroke-width="0" fill="#2f9e44" fill-rule="evenodd"/>
      <path d="M174.11 -113.64 C170.83 -111.06, 169.93 -106.03, 166.1 -100.95 M166.1 -100.95 C164.89 -105.16, 161.65 -108.3, 159.24 -111.61 M159.24 -111.61 C162.5 -113.16, 166.65 -112.02, 174.11 -113.64 M174.11 -113.64 C174.11 -113.64, 174.11 -113.64, 174.11 -113.64" stroke="#2f9e44" stroke-width="1.5" fill="none"/>
    </g>
  </g>
  <mask/>
</svg>