<?xml version="1.0" encoding="utf-8"?>
<svg xmlns="http://www.w3.org/2000/svg" version="1.1" viewBox="0 0 1334.249271447432 958.583914229821" width="2668.498542894864" height="1917.167828459642" filter="invert(93%) hue-rotate(180deg)">
  
  
  <defs>
    <style class="style-fonts">
      @font-face {
        font-family: "Virgil";
        src: url(/Virgil.woff2);
      }
      @font-face {
        font-family: "Cascadia";
        src: url(/Cascadia.woff2);
      }
    </style>
    
  </defs>
  <g stroke-linecap="round">
    <g transform="translate(26.597928800423688 121.80212261415727) rotate(0 -0.013249334662759793 399.37967929579463)">
      <path d="M1.85 -2.17 C2.07 131.63, -0.27 667.54, -0.95 800.93 M-0.6 2.83 C-0.32 135.92, -1.42 663.51, -1.89 796.42" stroke="#1e1e1e" stroke-width="2" fill="none"/>
    </g>
  </g>
  <mask/>
  <g stroke-linecap="round">
    <g transform="translate(25.584011401697353 919.592051766238) rotate(0 559.0930960645046 -0.3106087220221525)">
      <path d="M-1.99 0.1 C184.28 -0.1, 933.29 -1.84, 1120.17 -2.08 M2.13 -2.32 C188 -1.94, 933.2 2.3, 1119.24 1.62" stroke="#1e1e1e" stroke-width="2" fill="none"/>
    </g>
  </g>
  <mask/>
  <g transform="translate(10 68.14751237821474) rotate(0 17.382476806640625 27.02777777778101)">
    <text x="17.382476806640625" y="0" font-family="Virgil, Segoe UI Emoji" font-size="43.24444444444974px" fill="#1e1e1e" text-anchor="middle" style="white-space: pre;" direction="ltr" dominant-baseline="text-before-edge">T</text>
  </g>
  <g transform="translate(1174.6974007742738 894.5283586742589) rotate(0 13.92327880859375 27.02777777778101)">
    <text x="13.92327880859375" y="0" font-family="Virgil, Segoe UI Emoji" font-size="43.24444444444974px" fill="#1e1e1e" text-anchor="middle" style="white-space: pre;" direction="ltr" dominant-baseline="text-before-edge">N</text>
  </g>
  <g stroke-linecap="round">
    <g transform="translate(15.560298401698674 832.1234955286563) rotate(0 11.904754867386146 -0.952388218469423)">
      <path d="M0 0 C3.97 -0.32, 19.84 -1.59, 23.81 -1.9 M0 0 C3.97 -0.32, 19.84 -1.59, 23.81 -1.9" stroke="#1e1e1e" stroke-width="4" fill="none"/>
    </g>
  </g>
  <mask/>
  <g stroke-linecap="round">
    <g transform="translate(109.27525237233203 907.8923759766985) rotate(0 0.9898533683817732 11.548309556266759)">
      <path d="M0 0 C0.33 3.85, 1.65 19.25, 1.98 23.1 M0 0 C0.33 3.85, 1.65 19.25, 1.98 23.1" stroke="#1e1e1e" stroke-width="4" fill="none"/>
    </g>
  </g>
  <mask/>
  <g stroke-linecap="round">
    <g transform="translate(18.208742401697236 733.0182909766954) rotate(0 8.248773074969904 -3.299506079103594)">
      <path d="M0 0 C2.75 -1.1, 13.75 -5.5, 16.5 -6.6 M0 0 C2.75 -1.1, 13.75 -5.5, 16.5 -6.6" stroke="#1e1e1e" stroke-width="4" fill="none"/>
    </g>
  </g>
  <mask/>
  <g stroke-linecap="round">
    <g transform="translate(239.27600440169772 906.5725918638782) rotate(0 0.9898535787215224 12.868093788954866)">
      <path d="M0 0 C0.33 4.29, 1.65 21.45, 1.98 25.74 M0 0 C0.33 4.29, 1.65 21.45, 1.98 25.74" stroke="#1e1e1e" stroke-width="4" fill="none"/>
    </g>
  </g>
  <mask/>
  <g stroke-linecap="round">
    <g transform="translate(15.569143401697147 644.5913799767004) rotate(0 14.187893328736209 -2.969559979981568)">
      <path d="M0 0 C4.73 -0.99, 23.65 -4.95, 28.38 -5.94 M0 0 C4.73 -0.99, 23.65 -4.95, 28.38 -5.94" stroke="#1e1e1e" stroke-width="4" fill="none"/>
    </g>
  </g>
  <mask/>
  <g stroke-linecap="round">
    <g transform="translate(18.868634401698728 560.1239129304449) rotate(0 9.568587723591918 2.639598913039663)">
      <path d="M0 0 C3.19 0.88, 15.95 4.4, 19.14 5.28 M0 0 C3.19 0.88, 15.95 4.4, 19.14 5.28" stroke="#1e1e1e" stroke-width="4" fill="none"/>
    </g>
  </g>
  <mask/>
  <g stroke-linecap="round">
    <g transform="translate(18.868634401698728 469.7173099766951) rotate(0 9.23864163545295 -0.6599071087839548)">
      <path d="M0 0 C3.08 -0.22, 15.4 -1.1, 18.48 -1.32 M0 0 C3.08 -0.22, 15.4 -1.1, 18.48 -1.32" stroke="#1e1e1e" stroke-width="4" fill="none"/>
    </g>
  </g>
  <mask/>
  <g stroke-linecap="round">
    <g transform="translate(16.888927920774222 380.6305069766968) rotate(0 12.20820161267784 1.31979955081988)">
      <path d="M0 0 C4.07 0.44, 20.35 2.2, 24.42 2.64 M0 0 C4.07 0.44, 20.35 2.2, 24.42 2.64" stroke="#1e1e1e" stroke-width="4" fill="none"/>
    </g>
  </g>
  <mask/>
  <g stroke-linecap="round">
    <g transform="translate(13.58943640169855 297.4828695331671) rotate(0 12.538132811730975 -0.6599223842058564)">
      <path d="M0 0 C4.18 -0.22, 20.9 -1.1, 25.08 -1.32 M0 0 C4.18 -0.22, 20.9 -1.1, 25.08 -1.32" stroke="#1e1e1e" stroke-width="4" fill="none"/>
    </g>
  </g>
  <mask/>
  <g stroke-linecap="round">
    <g transform="translate(14.909221184010676 214.33515597669611) rotate(0 10.228494875916113 3.9594136757841625)">
      <path d="M0 0 C3.41 1.32, 17.05 6.6, 20.46 7.92 M0 0 C3.41 1.32, 17.05 6.6, 20.46 7.92" stroke="#1e1e1e" stroke-width="4" fill="none"/>
    </g>
  </g>
  <mask/>
  <g stroke-linecap="round">
    <g transform="translate(16.888927920774222 143.72560597669508) rotate(0 10.55844096405417 2.3096679575392045)">
      <path d="M0 0 C3.52 0.77, 17.6 3.85, 21.12 4.62 M0 0 C3.52 0.77, 17.6 3.85, 21.12 4.62" stroke="#1e1e1e" stroke-width="4" fill="none"/>
    </g>
  </g>
  <mask/>
  <g stroke-linecap="round">
    <g transform="translate(373.14514207038155 904.4394497106987) rotate(0 0 11.168726484353101)">
      <path d="M0 0 C0 3.72, 0 18.61, 0 22.34 M0 0 C0 3.72, 0 18.61, 0 22.34" stroke="#1e1e1e" stroke-width="4" fill="none"/>
    </g>
  </g>
  <mask/>
  <g stroke-linecap="round">
    <g transform="translate(499.724042226384 902.7848488124655) rotate(0 0 12.823365253978409)">
      <path d="M0 0 C0 4.27, 0 21.37, 0 25.65 M0 0 C0 4.27, 0 21.37, 0 25.65" stroke="#1e1e1e" stroke-width="4" fill="none"/>
    </g>
  </g>
  <mask/>
  <g stroke-linecap="round">
    <g transform="translate(623.8210031636427 898.6483086954759) rotate(0 0 12.409696093727689)">
      <path d="M0 0 C0 4.14, 0 20.68, 0 24.82 M0 0 C0 4.14, 0 20.68, 0 24.82" stroke="#1e1e1e" stroke-width="4" fill="none"/>
    </g>
  </g>
  <mask/>
  <g stroke-linecap="round">
    <g transform="translate(727.2351120304338 899.4755709766978) rotate(0 2.068307929878756 13.237034562487679)">
      <path d="M0 0 C0.69 4.41, 3.45 22.06, 4.14 26.47 M0 0 C0.69 4.41, 3.45 22.06, 4.14 26.47" stroke="#1e1e1e" stroke-width="4" fill="none"/>
    </g>
  </g>
  <mask/>
  <g stroke-linecap="round">
    <g transform="translate(828.1673574016986 905.2667879766959) rotate(0 9.777068044058979e-9 12.823365281234146)">
      <path d="M0 0 C0 4.27, 0 21.37, 0 25.65 M0 0 C0 4.27, 0 21.37, 0 25.65" stroke="#1e1e1e" stroke-width="4" fill="none"/>
    </g>
  </g>
  <mask/>
  <g stroke-linecap="round">
    <g transform="translate(934.8907434016983 904.4394497106987) rotate(0 0.8273385333050101 12.409696093727689)">
      <path d="M0 0 C0.28 4.14, 1.38 20.68, 1.65 24.82 M0 0 C0.28 4.14, 1.38 20.68, 1.65 24.82" stroke="#1e1e1e" stroke-width="4" fill="none"/>
    </g>
  </g>
  <mask/>
  <g stroke-linecap="round">
    <g transform="translate(1038.304928401698 902.7848488124655) rotate(0 1.240969626954211 15.718935761589819)">
      <path d="M0 0 C0.41 5.24, 2.07 26.2, 2.48 31.44 M0 0 C0.41 5.24, 2.07 26.2, 2.48 31.44" stroke="#1e1e1e" stroke-width="4" fill="none"/>
    </g>
  </g>
  <mask/>
  <g stroke-linecap="round">
    <g transform="translate(1114.4176301546813 906.0941259766987) rotate(0 1.2409696093718594 13.236996730352985)">
      <path d="M0 0 C0.41 4.41, 2.07 22.06, 2.48 26.47 M0 0 C0.41 4.41, 2.07 22.06, 2.48 26.47" stroke="#1e1e1e" stroke-width="4" fill="none"/>
    </g>
  </g>
  <mask/>
  <g stroke-linecap="round">
    <g transform="translate(24.164970360336156 914.5543925286984) rotate(0 546.9650529297442 -337.4049033908668)">
      <path d="M0 0 C182.32 -112.47, 911.61 -562.34, 1093.93 -674.81 M0 0 C182.32 -112.47, 911.61 -562.34, 1093.93 -674.81" stroke="#e03131" stroke-width="4" fill="none"/>
    </g>
  </g>
  <mask/>
  <g stroke-linecap="round">
    <g transform="translate(26.58467940169794 919.4406859766968) rotate(0 564.2069899412645 -184.3254882991714)">
      <path d="M0 0 C188.07 -61.44, 940.34 -307.21, 1128.41 -368.65 M0 0 C188.07 -61.44, 940.34 -307.21, 1128.41 -368.65" stroke="#2f9e44" stroke-width="4" fill="none"/>
    </g>
  </g>
  <mask/>
  <g stroke-linecap="round">
    <g transform="translate(28.118934307622112 906.6464646341265) rotate(0 466.5677457797874 -427.02810630692693)">
      <path d="M0 0 C155.52 -142.34, 777.61 -711.71, 933.14 -854.06 M0 0 C155.52 -142.34, 777.61 -711.71, 933.14 -854.06" stroke="#1971c2" stroke-width="4" fill="none"/>
    </g>
  </g>
  <mask/>
  <g transform="translate(993.6656617661429 10) rotate(0 47.66398620605469 22.5)">
    <text x="47.66398620605469" y="0" font-family="Virgil, Segoe UI Emoji" font-size="36px" fill="#1971c2" text-anchor="middle" style="white-space: pre;" direction="ltr" dominant-baseline="text-before-edge">y = x</text>
  </g>
  <g transform="translate(1138.3079090518695 203.77246732788626) rotate(0 60.47998046875 22.5)">
    <text x="60.47998046875" y="0" font-family="Virgil, Segoe UI Emoji" font-size="36px" fill="#e03131" text-anchor="middle" style="white-space: pre;" direction="ltr" dominant-baseline="text-before-edge">y = 2x</text>
  </g>
  <g transform="translate(1206.6733131954788 511.63779157859244) rotate(0 58.78797912597656 22.5)">
    <text x="58.78797912597656" y="0" font-family="Virgil, Segoe UI Emoji" font-size="36px" fill="#2f9e44" text-anchor="middle" style="white-space: pre;" direction="ltr" dominant-baseline="text-before-edge">y = 5x</text>
  </g>
</svg>